<svg width="68" height="68" viewBox="0 0 68 68" fill="none" xmlns="http://www.w3.org/2000/svg">
<path d="M56 0C62.6273 0.000115582 68 5.37265 68 12V56C67.9998 62.6272 62.6272 67.9999 56 68H12C5.37271 68 0.00021045 62.6272 0 56V12C0 5.37258 5.37258 0 12 0H56ZM45.2236 4.91504C44.8231 4.90904 44.2204 4.92162 43.9023 4.93066C43.6201 4.9387 43.4784 4.94308 43.3408 4.96875C43.3778 4.96186 43.4098 4.95833 43.4258 4.95703C43.4132 4.9576 43.3906 4.95809 43.3525 4.95898C43.2817 4.96065 43.1659 4.96289 43.0322 4.9668C42.758 4.97481 42.3772 4.99139 41.918 5.03223C41.4848 5.07078 41.2263 5.14049 41.1299 5.16211C40.9371 5.20527 40.7104 5.27021 40.5586 5.31055C40.3811 5.35769 40.2551 5.38594 40.1611 5.39746C40.1466 5.39927 40.1314 5.40298 40.1162 5.40527C40.0157 5.3527 39.9073 5.31596 39.7959 5.29688L39.627 5.28125C39.5448 5.28046 39.3772 5.28231 39.1592 5.35059C39.0123 5.39664 38.8662 5.46493 38.7188 5.55371L38.5703 5.64941C38.3863 5.77565 38.2434 5.93773 38.1914 5.99219C38.1189 6.06812 38.0155 6.17401 37.8223 6.33789C37.7101 6.43292 37.645 6.46511 37.5889 6.4873C37.4992 6.52264 37.401 6.54592 37.1367 6.61133C36.8007 6.69457 36.3647 6.90515 36.0557 7.17285C35.9383 7.27456 35.6504 7.53577 35.4512 7.74316C35.4274 7.76783 35.4029 7.78939 35.3232 7.8623C35.2548 7.9249 35.1583 8.01534 35.0586 8.12793C34.9833 8.21295 34.805 8.40243 34.6621 8.66113C34.5096 8.93749 34.4135 9.2524 34.3711 9.63086C34.3856 9.49901 34.1188 10.3479 34.21 11.4307L34.2119 11.4521C34.2373 11.7532 34.2617 12.0388 34.3115 12.4668C34.3776 13.0342 34.4158 13.4604 34.4326 13.6689C34.4433 13.801 34.4501 13.9123 34.4541 14.0068C34.3936 13.9426 34.3309 13.8893 34.2695 13.8467L34.1748 13.7871L34.0771 13.7363C33.8459 13.6262 33.5851 13.5783 33.2461 13.5693C32.657 13.5538 32.3001 13.5092 32.0732 13.4824C31.9988 13.4736 31.8086 13.4476 31.6445 13.458C31.559 13.4635 31.3282 13.4843 31.0967 13.6387C30.8422 13.8086 30.7119 14.0503 30.6592 14.2656L30.6416 14.3564C30.6143 14.5347 30.6024 14.7872 30.666 15.0391C30.6663 15.0455 30.6667 15.0532 30.667 15.0615C30.67 15.1416 30.6702 15.2246 30.6729 15.3652C30.677 15.5848 30.6855 15.9797 30.7812 16.3184C30.7935 16.3617 30.8577 16.6727 31 16.958C31.0049 16.993 31.0121 17.0488 31.0176 17.1299C31.0274 17.2772 31.031 17.4766 31.0312 17.7402C30.697 17.6521 30.3816 17.5656 30.0312 17.4717C29.4363 17.3123 29.1144 17.2652 28.7236 17.1289C28.3453 16.9969 27.8328 16.9418 27.3633 16.916C26.8625 16.8886 26.294 16.8901 25.7432 16.9141C25.1957 16.938 24.7847 17.0095 24.4668 17.0713C24.129 17.137 24.0081 17.1624 23.8926 17.165C23.8831 17.1631 23.8623 17.1584 23.8262 17.1484C23.7837 17.1367 23.7387 17.1237 23.6689 17.1025C23.6039 17.0828 23.522 17.058 23.4326 17.0342C23.0462 16.9315 22.5529 16.8528 21.8711 16.9287C21.7768 16.9392 21.6687 16.9435 21.5195 16.9473C21.3811 16.9508 21.1983 16.9536 21.0098 16.9658C20.6136 16.9916 20.1441 17.0596 19.6162 17.2715C19.0314 17.5063 18.6608 17.6882 18.2412 17.8398C17.7263 18.0258 17.2653 18.285 16.8662 18.5146C16.4685 18.7435 16.0449 18.9924 15.5215 19.4189C15.0951 19.7665 14.8216 20.1206 14.6475 20.4287C14.6022 20.4676 14.5566 20.5088 14.5146 20.5518C14.397 20.6721 14.2645 20.8446 14.1904 21.0859L14.1504 21.2148L14.1484 21.252C14.0955 21.3537 14.0605 21.4464 14.04 21.5059C14.0309 21.5179 14.0202 21.5328 14.0068 21.5498C13.9977 21.5614 13.9882 21.5734 13.9775 21.5869C13.9671 21.6002 13.9552 21.6157 13.9434 21.6309L13.8232 21.7852L13.7695 21.9746C13.7385 22.0848 13.6674 22.3354 13.6455 22.6064C13.6269 22.8378 13.6187 23.3574 13.9971 23.7822C14.1716 23.978 14.4015 24.1244 14.6631 24.2061C14.6445 24.264 14.627 24.3267 14.6133 24.3916C14.5794 24.5529 14.5407 24.8555 14.6768 25.1797C14.8397 25.5671 15.1362 25.7842 15.3564 25.9033C15.5004 25.9811 15.642 26.0308 15.7617 26.0664C15.761 26.0858 15.759 26.106 15.7588 26.126C15.7576 26.2863 15.7769 26.5114 15.8779 26.748C15.9657 26.9533 16.1072 27.1009 16.1924 27.1797C16.1995 27.1928 16.2095 27.2092 16.2217 27.2324C16.2812 27.3462 16.3847 27.5511 16.5547 27.7871C16.4319 28.1506 16.3431 28.639 16.2598 29.3984C16.2295 29.6739 16.2001 29.9125 16.167 30.1055C16.1506 30.201 16.1345 30.2766 16.1201 30.333C16.1095 30.3746 16.1027 30.3967 16.1006 30.4033C15.9382 30.7681 15.8058 31.1213 15.7061 31.3955C15.6541 31.5385 15.6154 31.6474 15.5801 31.7422C15.5452 31.8357 15.5296 31.8719 15.5273 31.877L15.3604 32.1846C15.3335 32.2365 15.3054 32.2944 15.2783 32.3555C15.1668 32.607 15.0545 32.963 15.0967 33.3936C15.1148 33.5782 15.1682 33.7405 15.1895 33.8076C15.2182 33.8982 15.2277 33.9293 15.2354 33.9648C15.2414 33.9932 15.2563 34.0526 15.21 34.2012C15.0485 34.7178 14.7436 35.349 14.5166 35.8867C14.3518 36.2774 14.1813 36.7185 14.1074 37.2578C14.0988 37.3208 14.0935 37.3807 14.0898 37.4287C14.0864 37.4742 14.0833 37.5262 14.0811 37.5605C14.078 37.6062 14.0731 37.6412 14.0703 37.6689C14.0048 37.709 13.9198 37.7473 13.7354 37.835C13.7308 37.8368 13.7162 37.8427 13.6855 37.8525C13.6708 37.8572 13.5506 37.8937 13.4932 37.9131C13.3805 37.9512 13.0872 38.0502 12.8408 38.3027L12.7383 38.4209C12.5268 38.6975 12.5071 38.9966 12.5225 39.1748C12.5389 39.365 12.6018 39.534 12.6826 39.6709C12.6862 39.677 12.7087 39.7152 12.7236 39.8047C12.7393 39.8991 12.7506 40.0755 12.6982 40.3584C12.6678 40.5229 12.6349 40.6776 12.5918 40.8145C12.5468 40.957 12.5064 41.0255 12.4902 41.0469C12.3029 41.2922 12.1586 41.5534 12.043 41.8574L11.9365 42.1768C11.901 42.2992 11.8878 42.4127 11.8818 42.4834C11.8754 42.5602 11.8731 42.6366 11.8721 42.6982C11.8698 42.8334 11.8706 42.9006 11.8682 42.999C11.8557 42.9989 11.8429 42.9991 11.8301 42.999C11.8067 42.9863 11.7845 42.9719 11.7607 42.9609C11.6761 42.922 11.3876 42.7982 11.0293 42.8965C10.8285 42.9517 10.6284 43.0735 10.4814 43.2686C10.3321 43.384 10.1664 43.5734 10.1064 43.8721C10.0345 44.2315 10.1693 44.5057 10.2676 44.6504C10.2824 45.0021 10.3285 45.3707 10.4453 45.7139C10.4665 45.7761 10.4905 45.8614 10.5254 45.9932C10.5578 46.1154 10.5993 46.2737 10.6475 46.4385C10.745 46.7724 10.8845 47.182 11.1143 47.5977C11.3686 48.0576 11.5544 48.4137 11.709 48.7109C11.8604 49.002 11.9949 49.2618 12.1328 49.4971C12.4685 50.0696 12.8518 50.8563 13.4883 51.7676C13.7595 52.1559 14.0234 52.5731 14.3545 53.0615C14.6541 53.5035 15.0008 53.9916 15.3389 54.335C15.7471 54.7496 16.1466 55.2021 16.9082 55.9023C17.9247 56.8371 18.9358 57.7974 19.7119 58.4492L20.3467 58.9688C20.4456 59.0523 20.5393 59.1336 20.6318 59.2139C20.8116 59.3698 21.0033 59.5371 21.2041 59.6904C21.4181 59.8538 21.6667 60.0252 21.8916 60.1797C22.1265 60.341 22.3388 60.4862 22.5156 60.6182C22.9244 60.9232 23.3837 61.2094 23.8916 61.4316C24.4536 61.6775 25.1009 61.8367 25.5469 61.9736C26.032 62.1226 27.1008 62.478 28.874 62.3779C29.9723 62.3158 30.9565 62.1164 32.3799 62.1729C33.0411 62.1991 33.4673 62.2667 33.8818 62.3271C34.3113 62.3897 34.7509 62.4489 35.3428 62.4131C35.7804 62.3866 36.4161 62.3639 36.9512 62.3203C37.4639 62.2785 38.103 62.2051 38.5703 62.0029C39.6937 61.5165 40.9986 61.0196 41.6904 60.6455C42.0375 60.4579 43.1582 59.9126 43.96 59.2773C44.3302 58.984 44.6356 58.7736 44.8965 58.6025C45.1344 58.4465 45.4149 58.2733 45.6289 58.1191C46.0926 57.785 46.6298 57.247 46.9717 56.9121C47.3471 56.5443 47.7393 56.0897 48.0508 55.6289C48.6067 54.8066 49.613 53.153 49.9541 52.6074C50.2872 52.0747 50.705 51.3393 51.0928 50.6768C51.4762 50.0217 51.7852 49.5194 52.0576 49.0312C52.5066 48.2266 52.8678 47.3688 53.1221 46.6104C53.3569 45.9099 53.7575 44.8486 54.2373 43.3164C54.4909 42.5068 54.8666 41.6737 54.8994 40.4902C54.95 38.66 55.0073 38.2601 55.082 37.9131C55.1353 37.6664 55.4246 36.8759 55.4189 35.9209C55.4094 34.3447 55.371 33.6708 55.3252 33.1182C55.2858 32.6426 55.2513 31.9346 55.0547 31.1699C54.8367 30.3225 54.6305 29.4307 54.293 28.8018C53.7218 27.7377 53.5456 27.0376 53.2705 26.3232C53.1406 25.986 52.9916 25.7021 52.8467 25.4414C52.6949 25.1685 52.5657 24.9513 52.4141 24.6592C52.1275 24.1073 51.6663 23.2772 51.1514 22.7988C50.7459 22.4223 50.1693 21.8241 49.6914 21.4229C48.9218 20.7768 48.476 20.4466 48.0938 20.1719C47.7923 19.9552 46.983 19.3385 46.2598 19.0508C45.8126 18.873 45.0584 18.5591 44.5264 18.4189C44.0836 18.3024 43.5421 18.1414 42.9629 18.0996C42.3792 18.0576 41.6253 17.9902 40.959 17.9287C40.3082 17.8687 39.7165 17.8118 39.4932 17.7969C38.5977 17.7372 37.3259 17.8101 36.833 17.8525C36.6297 17.8701 36.443 17.9011 36.2852 17.9258C36.122 17.9513 35.9556 17.9762 35.7432 17.9961C35.4174 18.0265 34.957 18.0459 34.2373 18.0254C34.2449 17.8849 34.251 17.7538 34.2598 17.6387C34.2714 17.4867 34.2837 17.3378 34.2949 17.1953C34.5263 17.0674 34.7366 16.9527 34.8916 16.8545C34.9194 16.8369 34.9454 16.8196 34.9658 16.8057C34.9723 16.8013 34.9791 16.7963 34.9854 16.792C35.0758 16.7839 35.1752 16.7741 35.2695 16.7695C35.3404 16.7661 35.404 16.7641 35.4541 16.7637C35.4934 16.7633 35.5149 16.7644 35.5215 16.7646C35.5834 16.77 35.6223 16.7778 35.6494 16.7852C35.6809 16.7937 35.7141 16.806 35.7842 16.833C36.0719 16.944 36.0668 16.929 36.1504 16.9736C36.307 17.0572 36.6915 17.3117 37.1953 17.3955C37.5901 17.4611 37.9846 17.4903 38.1064 17.5029C38.2405 17.5168 38.3622 17.5121 38.4434 17.5078C38.4848 17.5056 38.5298 17.5023 38.5664 17.5C38.6057 17.4975 38.6448 17.4952 38.6855 17.4932C38.8394 17.4856 39.0587 17.4818 39.3994 17.5117C39.832 17.5497 39.981 17.568 40.0547 17.5869C40.1252 17.6051 40.2115 17.632 40.3193 17.666C40.4162 17.6966 40.5427 17.7374 40.6533 17.7686C40.8754 17.8311 41.2117 17.9316 41.8232 17.9424C42.1473 17.9481 42.6911 17.9454 43.2568 17.9199C43.821 17.8945 44.3912 17.8475 44.7334 17.8105C44.8844 17.7943 45.0192 17.7798 45.124 17.7627C45.2322 17.745 45.3992 17.7121 45.5752 17.6191C45.7174 17.5439 45.8446 17.4524 45.9385 17.3818C46.0305 17.3126 46.1362 17.2271 46.209 17.1699C46.389 17.0283 46.4857 16.9649 46.5439 16.9395C46.7354 16.856 46.8145 16.8319 46.9053 16.8164C47.0203 16.7968 47.1971 16.7852 47.5859 16.7871C47.9201 16.7888 48.4644 16.7957 48.7988 16.7812C49.2794 16.7604 49.5756 16.7001 49.835 16.6367C49.9119 16.6179 49.9897 16.5916 50.0381 16.5752C50.087 16.5586 50.1625 16.532 50.2158 16.5137C50.3396 16.4711 50.4834 16.4241 50.6465 16.3799C50.6838 16.3698 50.7236 16.3612 50.7812 16.3486C50.8315 16.3377 50.9131 16.3196 50.9941 16.2979C51.1728 16.2498 51.4146 16.1649 51.6533 15.9746C51.7751 15.8774 51.8702 15.7699 51.9326 15.6953C51.9952 15.6205 52.0598 15.5355 52.1045 15.4775C52.2072 15.3443 52.2833 15.2517 52.3672 15.1748C52.5256 15.0298 52.6554 14.9118 52.7686 14.8174C52.8235 14.7715 52.8672 14.7364 52.9014 14.7119C52.9269 14.6936 52.9421 14.6851 52.9463 14.6826C53.062 14.623 53.1437 14.5816 53.21 14.5527C53.2411 14.5392 53.2648 14.5302 53.2812 14.5244C53.289 14.5217 53.2958 14.5197 53.2998 14.5186C53.3026 14.5178 53.305 14.5176 53.3057 14.5176C53.4662 14.4819 53.8582 14.4358 54.2773 14.4648C54.2786 14.4648 54.2825 14.4635 54.3135 14.4746C54.3358 14.4826 54.3667 14.4946 54.416 14.5156C54.4404 14.526 54.4661 14.5374 54.4971 14.5508C54.5271 14.5637 54.5614 14.5784 54.5977 14.5938C54.7474 14.6572 54.8326 14.7225 54.8984 14.7754C54.9085 14.7835 54.9524 14.8194 54.9746 14.8369C54.9973 14.8548 55.0655 14.9086 55.1514 14.957C55.2088 14.9894 55.474 15.1392 55.832 15.083C56.2833 15.0119 56.5095 14.69 56.5938 14.5215C56.6236 14.4618 56.6811 14.3617 56.7441 14.2646C56.7747 14.2177 56.8021 14.179 56.8223 14.1523C56.8321 14.1395 56.8383 14.1325 56.8398 14.1309C56.8796 14.0928 56.9188 14.0537 56.9424 14.0303C56.9767 13.9963 57.0004 13.974 57.0205 13.9561C57.0224 13.9543 57.0247 13.9518 57.0264 13.9502C57.0482 13.9476 57.0817 13.9449 57.1289 13.9395C57.1872 13.9327 57.3524 13.9141 57.5244 13.8477C57.7272 13.7692 58.0009 13.5998 58.1602 13.2637C58.3415 12.8799 58.23 12.5329 58.1484 12.3701C58.0706 12.2151 57.9707 12.1158 57.9258 12.0732C57.8283 11.9809 57.7295 11.92 57.6807 11.8916C57.599 11.8441 57.5036 11.7623 57.4434 11.6855C57.2557 11.446 57.1497 11.2978 57.0596 11.1133C57.0256 11.0431 56.8552 10.5521 56.4365 10.1338C56.3996 10.0969 56.3677 10.0628 56.3252 10.0186C56.2877 9.97945 56.2336 9.92397 56.1768 9.87109C56.1277 9.82548 56.0474 9.75357 55.9375 9.68359C55.9354 9.64328 55.933 9.60107 55.9277 9.55859C55.909 9.40831 55.8622 9.20108 55.7363 8.99512L55.6768 8.90723L55.5547 8.76172C55.4277 8.62916 55.2871 8.5331 55.1445 8.45605C54.9801 8.3672 54.7774 8.28411 54.5527 8.19727C54.5013 8.17739 54.4534 8.15926 54.4121 8.14355C54.3697 8.12745 54.3349 8.11471 54.3037 8.10254C54.2772 8.09215 54.2569 8.08274 54.2412 8.07617C54.0631 7.83979 54.0091 7.74905 53.9844 7.69922C53.9103 7.54957 53.7257 7.15447 53.5449 6.89746L53.5625 6.92285C53.5619 6.92187 53.5569 6.91445 53.5479 6.89746C53.5354 6.87418 53.4962 6.79661 53.4502 6.72363C53.367 6.59166 53.119 6.22987 52.623 6.12891C52.527 6.10939 52.4174 6.09768 52.3506 6.09082C52.3104 6.0867 52.2663 6.08306 52.2256 6.0791C52.1838 6.07503 52.1422 6.07074 52.1006 6.06641C51.9164 6.04723 51.7883 6.02804 51.7207 6.00977C51.4889 5.94714 51.2209 5.90293 51.0146 5.87012C50.7795 5.83271 50.6134 5.80822 50.4922 5.78027L50.46 5.77246C50.0864 5.68624 49.675 5.59127 49.0859 5.52051C48.6848 5.47233 48.3579 5.40588 48.0215 5.32129C47.7486 5.25263 47.6122 5.20134 47.374 5.13086C47.1414 5.06202 46.8871 5.00116 46.5518 4.9873C46.3763 4.98005 46.209 4.96629 45.9834 4.9502C45.7655 4.93465 45.5162 4.91944 45.2236 4.91504Z" fill="#D6EDCB"/>
</svg>
