<svg width="92" height="92" viewBox="0 0 92 92" fill="none" xmlns="http://www.w3.org/2000/svg">
<path d="M78.4895 0C85.9511 1.03622e-07 92 6.04885 92 13.5105V78.4895C92 85.9511 85.9511 92 78.4895 92H13.5105C6.04885 92 1.03629e-07 85.9511 0 78.4895V13.5105C1.03629e-07 6.04885 6.04885 1.03622e-07 13.5105 0H78.4895ZM61.5053 7.72216C60.9809 7.7143 60.1805 7.73135 59.7524 7.74353C59.3844 7.754 59.248 7.76111 59.1373 7.77871C59.1478 7.77753 59.1458 7.77762 59.1222 7.77871C59.0966 7.77989 59.0594 7.78125 59.0072 7.78248C58.9065 7.78484 58.757 7.78733 58.5788 7.79253C58.2181 7.80307 57.7194 7.82446 57.1174 7.87798C56.5873 7.92511 56.2867 8.00828 56.1448 8.04007C55.9026 8.09429 55.6281 8.17275 55.4015 8.23295C55.1583 8.29758 54.9484 8.34734 54.7695 8.36929C54.6782 8.38048 54.5713 8.40239 54.4648 8.42709C54.3564 8.32305 54.219 8.25307 54.0727 8.22793L53.9559 8.21725C53.8798 8.2165 53.7366 8.2172 53.5418 8.27819C53.3616 8.33467 53.1637 8.43413 52.9356 8.59044C52.7636 8.70835 52.6338 8.85551 52.536 8.95799C52.4248 9.07441 52.2669 9.23447 51.9825 9.47569C51.6051 9.79564 51.4002 9.83628 50.7705 9.99213C50.4177 10.0795 49.9316 10.3143 49.6044 10.5978C49.4553 10.7271 49.0848 11.0645 48.836 11.3235C48.7833 11.3784 48.7255 11.429 48.63 11.5163C48.542 11.5968 48.4341 11.6979 48.3246 11.8217C48.209 11.9524 48.027 12.1464 47.8792 12.4141C47.7252 12.6931 47.6194 13.0254 47.5707 13.4602C47.5619 13.5388 47.2368 14.3536 47.3546 15.7516L47.3571 15.7805C47.3912 16.1855 47.4231 16.5612 47.489 17.1275C47.5793 17.9028 47.6315 18.4862 47.6549 18.7755C47.6823 19.1149 47.6978 19.3857 47.6901 19.6048C47.6821 19.8292 47.6509 19.9417 47.6266 19.9924C47.5047 20.246 47.2464 20.5728 47.0831 20.7087C46.9453 20.8232 46.8349 20.9469 46.7684 21.0184C46.6908 21.1017 46.6614 21.1276 46.6415 21.1409C46.5524 21.2005 46.4307 21.2918 46.3104 21.3822C46.3269 21.2909 46.3371 21.2568 46.3449 21.2383C46.3514 21.2232 46.3659 21.1954 46.3971 21.1428C46.4196 21.1047 46.4704 21.0213 46.5064 20.9575C46.5461 20.887 46.5975 20.7895 46.6352 20.6779C46.6683 20.5798 46.7001 20.4453 46.6905 20.2909L46.6836 20.2236L46.6679 20.1413C46.6471 20.0557 46.6095 19.9597 46.5428 19.8655C46.4792 19.7757 46.403 19.7068 46.3267 19.6538L46.2507 19.606L46.1696 19.5633C45.9745 19.4697 45.7284 19.4149 45.3303 19.4044C44.5017 19.3825 43.9949 19.3194 43.6823 19.2825C43.551 19.267 43.3732 19.2445 43.2318 19.2536C43.1588 19.2583 42.9977 19.2744 42.8398 19.3799C42.6681 19.4946 42.58 19.6575 42.5438 19.8058L42.5313 19.868C42.498 20.0851 42.4944 20.3655 42.5778 20.6019L42.5665 20.5686C42.5673 20.5789 42.5706 20.6146 42.5734 20.6867C42.5777 20.8029 42.5782 20.9351 42.5815 21.1095C42.5874 21.4189 42.6015 21.8615 42.7022 22.2172C42.7467 22.3746 42.8168 22.7316 42.9912 23.0346C42.9936 23.0429 42.999 23.0617 43.005 23.093C43.0194 23.1683 43.0343 23.2852 43.0458 23.4568C43.0688 23.8 43.0758 24.3099 43.0615 25.0413C43.0602 25.1085 43.0571 25.1721 43.0553 25.2329C43.0133 25.2238 42.9706 25.2144 42.9271 25.204C42.1576 25.0195 41.5281 24.8359 40.8268 24.648C40.104 24.4543 39.5662 24.3633 39.0117 24.1699C38.6023 24.0271 37.9982 23.9549 37.37 23.9204C36.7216 23.8849 35.9787 23.8863 35.2527 23.9179C34.5626 23.948 34.0472 24.0381 33.6342 24.1183C33.2025 24.2023 32.9615 24.2563 32.7201 24.2591C32.6592 24.2597 32.5813 24.2479 32.4462 24.2107C32.3778 24.1919 32.3068 24.1701 32.2168 24.1428C32.13 24.1165 32.03 24.0862 31.9215 24.0574C31.4693 23.9372 30.8928 23.8428 30.0732 23.9342C29.9128 23.9521 29.7411 23.9586 29.5385 23.9638C29.343 23.9688 29.1152 23.9722 28.8782 23.9877C28.3919 24.0193 27.8379 24.1008 27.2151 24.3508C26.4887 24.6424 25.9063 24.9198 25.3353 25.1261C24.705 25.3538 24.1326 25.6745 23.5931 25.9849C23.0655 26.2885 22.5336 26.6016 21.8716 27.141C21.3082 27.6001 20.9833 28.0547 20.7985 28.4158C20.7146 28.4831 20.6366 28.5497 20.5711 28.6168C20.4631 28.7273 20.3603 28.8654 20.3034 29.0509L20.2777 29.1339L20.2752 29.2206C20.2749 29.2303 20.2757 29.24 20.2758 29.2495L20.2067 29.3802C20.1493 29.4877 20.1128 29.5896 20.0898 29.6579C20.0829 29.6784 20.0716 29.7116 20.0659 29.7289C20.0321 29.7845 19.9743 29.8587 19.8536 30.0135L19.7757 30.1127L19.7411 30.2346C19.6984 30.3863 19.6205 30.6636 19.5972 30.9527C19.5761 31.2163 19.5843 31.6643 19.895 32.0133C20.1066 32.2506 20.4238 32.4148 20.7991 32.4436C20.9573 32.4558 21.0938 32.4846 21.1956 32.5285C21.2141 32.5365 21.2306 32.5449 21.2452 32.553C21.2332 32.5804 21.2213 32.6106 21.2069 32.6422C21.1612 32.742 21.0938 32.883 21.041 33.006C20.9871 33.1316 20.9258 33.2885 20.8915 33.4514C20.8588 33.6073 20.8331 33.8485 20.9367 34.0954C21.071 34.4148 21.32 34.6054 21.5399 34.7243C21.7845 34.8565 22.0241 34.9156 22.2008 34.9549C22.3591 34.99 22.4499 35.0081 22.5269 35.0315C22.5182 35.0838 22.5088 35.1435 22.4949 35.2282C22.4619 35.4281 22.3956 35.8325 22.5564 36.2089C22.6555 36.4404 22.8428 36.5833 22.8806 36.6148C22.8773 36.6119 22.8842 36.6168 22.9032 36.6456C22.9262 36.6803 22.9524 36.7277 22.9969 36.8127C23.082 36.9755 23.205 37.2198 23.4121 37.5025C23.4814 37.597 23.5557 37.6952 23.6057 37.7626C23.6114 37.7704 23.6167 37.7786 23.622 37.7859C23.4195 38.1979 23.2707 38.8129 23.125 40.14C23.0839 40.5151 23.0422 40.8549 22.9937 41.1378C22.943 41.433 22.8925 41.6161 22.8524 41.7063C22.6435 42.1756 22.473 42.6334 22.3397 43C22.1957 43.396 22.1148 43.6262 22.0664 43.7237C22.0297 43.7976 21.987 43.8719 21.9263 43.9813C21.8701 44.0827 21.8034 44.2061 21.7434 44.3413C21.6216 44.6161 21.5147 44.9693 21.5556 45.3868C21.5719 45.553 21.6207 45.7058 21.6511 45.8015C21.6864 45.9129 21.7118 45.9902 21.7309 46.0792C21.763 46.2293 21.7804 46.4328 21.6794 46.7564C21.4479 47.4969 21.0044 48.4215 20.72 49.0955C20.5035 49.6085 20.304 50.1335 20.2174 50.7667C20.2005 50.8897 20.1931 51.0275 20.1866 51.1267C20.1792 51.2385 20.1715 51.3311 20.1577 51.4151C20.1294 51.5865 20.0872 51.6416 20.0603 51.6652C19.8348 51.8622 19.6515 51.9307 19.3189 52.0886C19.2141 52.1384 19.1441 52.1475 18.9149 52.225C18.7719 52.2733 18.5183 52.3648 18.3143 52.5737L18.2301 52.6711C18.0861 52.8597 18.0705 53.067 18.0818 53.1982C18.0939 53.3371 18.1404 53.4639 18.2025 53.5689C18.281 53.7015 18.4741 54.0978 18.3099 54.985C18.2191 55.4755 18.1005 55.948 17.8965 56.2152C17.6186 56.579 17.4196 56.9755 17.2651 57.5075C17.2137 57.6845 17.2089 57.8938 17.2066 58.0259C17.2037 58.2012 17.2068 58.3321 17.201 58.5027C17.1956 58.6608 17.1832 58.7967 17.1602 58.908C17.1363 59.0226 17.1086 59.0723 17.0986 59.0858C17.0834 59.1063 17.0702 59.1219 17.0596 59.1354C16.9362 59.1343 16.772 59.1293 16.5193 59.1266C16.4316 59.1257 16.3382 59.1257 16.2404 59.1272C16.1809 59.0803 16.1182 59.0401 16.0538 59.0104C15.9863 58.9793 15.7889 58.8968 15.5493 58.9626C15.407 59.0017 15.2664 59.0909 15.1679 59.2353C15.1557 59.2531 15.1445 59.2709 15.1346 59.2887C15.0215 59.3554 14.8602 59.4894 14.8104 59.7373C14.7425 60.0766 14.9548 60.3021 14.9775 60.3272C14.9959 60.3476 15.0161 60.3654 15.0334 60.3813C15.0396 60.888 15.087 61.3992 15.2427 61.8565C15.2802 61.9669 15.3178 62.1042 15.3645 62.2806C15.4096 62.4505 15.4622 62.6524 15.5241 62.8642C15.6487 63.2906 15.8202 63.788 16.0952 64.2854C16.4432 64.9147 16.697 65.4014 16.9063 65.8039C17.1136 66.2026 17.2853 66.5342 17.4605 66.8331C17.9483 67.6651 18.4202 68.6492 19.2599 69.8513C19.6247 70.3737 20.0079 70.9767 20.4341 71.6055C20.84 72.2043 21.2755 72.8124 21.6812 73.2245C22.2569 73.8092 22.7624 74.3852 23.774 75.3154C25.3649 76.7782 26.8878 78.2327 27.9471 79.07C28.268 79.3237 28.5346 79.5545 28.7852 79.7718C29.032 79.9859 29.273 80.1957 29.5234 80.3869C29.7959 80.595 30.1166 80.8166 30.4231 81.0271C30.7359 81.242 31.0351 81.4462 31.2876 81.6347C31.807 82.0223 32.3802 82.3787 33.006 82.6525C33.7152 82.9628 34.5012 83.1522 35.1635 83.3555C35.7908 83.5482 37.1376 83.9994 39.4068 83.8713C40.7782 83.7939 42.2496 83.5166 44.2075 83.5943C45.1415 83.6313 45.7492 83.7276 46.3085 83.8091C46.8774 83.892 47.4112 83.9623 48.1355 83.9185C48.7594 83.8807 49.5746 83.8538 50.2918 83.7953C50.9945 83.738 51.7451 83.6427 52.2545 83.4221C53.833 82.7387 55.5111 82.104 56.4106 81.6177C56.9239 81.3401 58.3512 80.6454 59.3704 79.8378C59.8911 79.4252 60.3208 79.1294 60.6854 78.8903C61.0353 78.6609 61.376 78.4525 61.6491 78.2558C62.2209 77.8439 62.9 77.1654 63.3801 76.6951C63.858 76.2269 64.3556 75.649 64.7459 75.0717C65.487 73.9755 66.8295 71.7684 67.3011 71.0143C67.7434 70.307 68.2948 69.3349 68.8266 68.4264C69.3558 67.5222 69.7583 66.8699 70.1221 66.218C70.7041 65.175 71.1742 64.0585 71.5056 63.0703C71.8347 62.0886 72.3603 60.703 73.0072 58.6372C73.3759 57.4597 73.8279 56.4829 73.8685 55.0139C73.9367 52.5446 74.0144 51.9464 74.1305 51.407C74.2315 50.9379 74.5768 50.0592 74.5697 48.8712C74.5569 46.7552 74.5046 45.8653 74.4447 45.1424C74.3892 44.4736 74.346 43.5908 74.0991 42.6305C73.7916 41.4349 73.5374 40.3455 73.1334 39.5928C72.3343 38.1044 72.0634 37.0673 71.7167 36.1668C71.5586 35.7563 71.376 35.407 71.1864 35.0661C70.9924 34.7172 70.8034 34.3983 70.5927 33.9924C70.1986 33.2333 69.6266 32.2232 69.0346 31.6734C68.4287 31.1108 67.7267 30.3729 67.0913 29.8394C66.067 28.9795 65.4796 28.5453 64.9759 28.1833C64.531 27.8636 63.527 27.1017 62.6525 26.754C62.0186 26.502 61.0589 26.1021 60.3945 25.9271C59.7646 25.7613 59.1127 25.5679 58.4129 25.5175C57.6168 25.4602 56.5927 25.368 55.6937 25.285C54.8045 25.203 54.0224 25.1284 53.7335 25.1091C52.5789 25.0321 50.9051 25.1275 50.2509 25.1839C50.0054 25.2051 49.7803 25.2417 49.5592 25.2763C49.3347 25.3113 49.0941 25.3473 48.7852 25.3761C48.2045 25.4304 47.3586 25.4601 45.9409 25.3912C45.9644 24.9265 45.9877 24.4634 46.0126 24.1372C46.0387 23.7951 46.0665 23.4637 46.0911 23.1627C46.1018 23.1557 46.1127 23.1487 46.1238 23.1414C46.5781 22.8861 46.9385 22.696 47.1925 22.5351C47.2475 22.5002 47.3013 22.4627 47.3382 22.4371C47.3798 22.4081 47.4076 22.3889 47.4325 22.3736C47.4452 22.3658 47.4548 22.361 47.4607 22.3579C47.84 22.3152 48.3367 22.2938 48.4823 22.3064C48.7197 22.3269 48.852 22.3742 49.0296 22.4427C49.3458 22.5647 49.4394 22.5824 49.6025 22.6695C49.8896 22.8228 50.2639 23.0762 50.7956 23.1646C51.3005 23.2485 51.7894 23.2834 51.9831 23.3035C52.1947 23.3253 52.4657 23.2971 52.6566 23.2878C52.8929 23.2762 53.2213 23.2712 53.7171 23.3148C54.2793 23.3641 54.5474 23.3931 54.7161 23.4367C54.8318 23.4665 54.9647 23.5077 55.11 23.5535C55.2481 23.5971 55.404 23.6472 55.5398 23.6855C55.8169 23.7636 56.2022 23.8805 56.9383 23.8934C57.3618 23.9008 58.0811 23.8975 58.8294 23.8639C59.5768 23.8302 60.3316 23.7682 60.7784 23.72C60.9888 23.6973 61.1495 23.6797 61.2678 23.6603C61.3882 23.6406 61.5238 23.6107 61.6605 23.5384C61.9208 23.4006 62.2065 23.1626 62.41 23.0025C62.65 22.8137 62.8439 22.6741 63.0157 22.5992C63.2958 22.4771 63.4624 22.4192 63.6672 22.3843C63.8875 22.3468 64.178 22.3314 64.7076 22.334C65.175 22.3363 65.8819 22.3457 66.311 22.3271C66.904 22.3014 67.2569 22.2291 67.5732 22.1518C67.6924 22.1227 67.876 22.0555 68.0249 22.0042C68.1984 21.9444 68.4081 21.875 68.65 21.8094C68.7196 21.7906 68.7884 21.775 68.8668 21.7579C68.9402 21.7419 69.0322 21.7223 69.1219 21.6982C69.3118 21.6471 69.5355 21.5653 69.7539 21.391C69.9514 21.2333 70.1277 20.992 70.244 20.8412C70.384 20.6596 70.5181 20.4925 70.6806 20.3436C70.8923 20.1498 71.0792 19.979 71.2467 19.8391C71.4196 19.6949 71.5395 19.6113 71.6155 19.5721C71.9457 19.4019 72.1298 19.3189 72.2708 19.2875C72.5562 19.224 73.1539 19.1575 73.7856 19.2014C73.9543 19.2132 74.0352 19.2573 74.4434 19.4301C74.7278 19.5506 74.8996 19.6806 75.0164 19.7744C75.0458 19.7981 75.1648 19.8996 75.2627 19.9547C75.3096 19.9812 75.4879 20.0805 75.7245 20.0433C76.0215 19.9965 76.173 19.7847 76.2315 19.6676C76.2858 19.5589 76.3767 19.4 76.474 19.2504C76.522 19.1766 76.5681 19.11 76.6084 19.0569C76.6284 19.0307 76.6458 19.0098 76.6593 18.9941C76.6718 18.9796 76.6786 18.973 76.6794 18.9721C76.7346 18.9205 76.7921 18.8622 76.8365 18.8182C76.8848 18.7703 76.9271 18.7293 76.9691 18.6919C77.0534 18.6168 77.119 18.5724 77.177 18.5474C77.2369 18.5217 77.2951 18.5187 77.5037 18.4946C77.5813 18.4857 77.7242 18.4684 77.8644 18.4142C78.0242 18.3523 78.2227 18.2263 78.3381 17.9826C78.4565 17.7321 78.3846 17.5049 78.3299 17.3958C78.2777 17.2916 78.2095 17.2227 78.1754 17.1903C78.1021 17.1209 78.0226 17.0713 77.9743 17.0433C77.7873 16.9346 77.5907 16.7649 77.4535 16.5897C77.1962 16.2612 77.013 16.0134 76.8566 15.6931C76.7638 15.503 76.6078 15.0162 76.1517 14.5603C76.0697 14.4784 75.9138 14.3109 75.8193 14.223C75.7085 14.1198 75.52 13.9604 75.2526 13.9032C75.2559 13.8752 75.2607 13.8467 75.2633 13.8183C75.282 13.6177 75.3075 13.2243 75.0999 12.8879L75.0553 12.8219L75.0051 12.7572C74.8847 12.6134 74.7408 12.5091 74.5709 12.4173C74.3932 12.3212 74.1578 12.2242 73.8528 12.1063C73.5598 11.993 73.4237 11.9459 73.3131 11.8908C73.2392 11.8539 73.2158 11.8317 73.1856 11.7921C72.8928 11.4084 72.7756 11.2255 72.7075 11.0878C72.5889 10.8482 72.3737 10.3875 72.1703 10.0983C72.1703 10.0983 72.1667 10.0929 72.159 10.0795C72.1511 10.0658 72.1418 10.049 72.1288 10.0248C72.1068 9.98361 72.0669 9.90726 72.0214 9.83506C71.9362 9.6999 71.7389 9.42424 71.363 9.34752C71.2133 9.31706 70.9269 9.29381 70.7246 9.27275C70.4775 9.24703 70.2536 9.21712 70.1014 9.176C69.8305 9.10279 69.5055 9.049 69.2218 9.00385C68.9193 8.95573 68.6626 8.91666 68.4685 8.87191H68.4678L68.4251 8.86249C67.9246 8.74696 67.4003 8.62529 66.6446 8.53453C66.0684 8.46534 65.5985 8.36999 65.121 8.24992C64.7351 8.15287 64.5029 8.06905 64.2182 7.98478C63.9371 7.90162 63.6549 7.83568 63.2802 7.82018C63.0291 7.80982 62.7853 7.78961 62.4917 7.76866C62.2029 7.74805 61.8813 7.72781 61.5053 7.72216Z" fill="#275214"/>
</svg>
