<svg width="136" height="67" viewBox="0 0 136 67" fill="none" xmlns="http://www.w3.org/2000/svg">
<path d="M57.1608 0C62.5949 7.54637e-08 67 4.40514 67 9.83916V57.1608C67 62.5949 62.5949 67 57.1608 67H9.83916C4.40514 67 7.54686e-08 62.5949 0 57.1608V9.83916C7.54686e-08 4.40514 4.40514 7.54637e-08 9.83916 0H57.1608ZM44.7919 5.62375C44.41 5.61802 43.8271 5.63044 43.5153 5.63931C43.2473 5.64693 43.148 5.65211 43.0674 5.66493C43.075 5.66407 43.0736 5.66414 43.0564 5.66493C43.0378 5.66579 43.0107 5.66678 42.9727 5.66768C42.8993 5.6694 42.7904 5.67121 42.6606 5.675C42.398 5.68267 42.0348 5.69825 41.5964 5.73722C41.2103 5.77155 40.9914 5.83212 40.8881 5.85527C40.7117 5.89475 40.5118 5.9519 40.3468 5.99574C40.1696 6.0428 40.0168 6.07904 39.8865 6.09503C39.82 6.10317 39.7422 6.11913 39.6646 6.13712C39.5856 6.06135 39.4856 6.01039 39.3791 5.99208L39.294 5.9843C39.2386 5.98375 39.1343 5.98427 38.9924 6.02868C38.8612 6.06981 38.717 6.14224 38.5509 6.25608C38.4256 6.34195 38.3311 6.44912 38.2599 6.52375C38.179 6.60854 38.064 6.7251 37.8568 6.90077C37.582 7.13378 37.4328 7.16337 36.9742 7.27688C36.7172 7.34052 36.3633 7.5115 36.125 7.71796C36.0163 7.8121 35.7466 8.05784 35.5654 8.24643C35.527 8.28641 35.4849 8.32326 35.4153 8.3869C35.3513 8.44548 35.2727 8.51915 35.1929 8.60927C35.1087 8.70445 34.9762 8.84571 34.8685 9.04074C34.7564 9.2439 34.6794 9.48592 34.6439 9.80256C34.6375 9.85976 34.4007 10.4532 34.4865 11.4712L34.4883 11.4923C34.5131 11.7873 34.5364 12.0609 34.5844 12.4733C34.6501 13.0379 34.6882 13.4628 34.7052 13.6734C34.7251 13.9206 34.7364 14.1178 34.7308 14.2774C34.725 14.4408 34.7023 14.5227 34.6846 14.5597C34.5958 14.7444 34.4077 14.9824 34.2888 15.0813C34.1885 15.1647 34.1081 15.2548 34.0596 15.3069C34.0031 15.3676 33.9816 15.3864 33.9672 15.3961C33.9023 15.4395 33.8137 15.506 33.726 15.5718C33.7381 15.5053 33.7455 15.4805 33.7512 15.467C33.7559 15.456 33.7665 15.4358 33.7892 15.3975C33.8056 15.3697 33.8426 15.309 33.8688 15.2625C33.8977 15.2112 33.9351 15.1402 33.9626 15.0589C33.9867 14.9875 34.0098 14.8895 34.0028 14.777L33.9978 14.7281L33.9864 14.6681C33.9713 14.6058 33.9439 14.5359 33.8953 14.4673C33.849 14.4019 33.7935 14.3517 33.7379 14.3131L33.6826 14.2783L33.6235 14.2472C33.4814 14.179 33.3022 14.1391 33.0122 14.1314C32.4088 14.1155 32.0398 14.0695 31.8121 14.0427C31.7165 14.0314 31.587 14.015 31.484 14.0216C31.4309 14.025 31.3136 14.0368 31.1985 14.1136C31.0735 14.1971 31.0093 14.3158 30.983 14.4238L30.9739 14.4691C30.9496 14.6272 30.947 14.8314 31.0077 15.0035L30.9995 14.9793C31.0001 14.9868 31.0025 15.0128 31.0045 15.0653C31.0077 15.15 31.008 15.2462 31.0105 15.3732C31.0148 15.5985 31.025 15.9209 31.0983 16.1799C31.1307 16.2945 31.1818 16.5545 31.3088 16.7752C31.3106 16.7812 31.3145 16.7949 31.3189 16.8177C31.3294 16.8726 31.3402 16.9577 31.3486 17.0826C31.3653 17.3326 31.3705 17.7039 31.36 18.2366C31.3591 18.2855 31.3568 18.3319 31.3555 18.3761C31.3249 18.3695 31.2938 18.3627 31.2621 18.3551C30.7017 18.2208 30.2433 18.087 29.7325 17.9502C29.2062 17.8091 28.8145 17.7428 28.4107 17.602C28.1126 17.498 27.6726 17.4454 27.2151 17.4203C26.7429 17.3944 26.2019 17.3954 25.6731 17.4185C25.1706 17.4404 24.7952 17.506 24.4945 17.5644C24.1801 17.6256 24.0045 17.6649 23.8288 17.6669C23.7844 17.6674 23.7277 17.6588 23.6293 17.6317C23.5795 17.618 23.5278 17.6021 23.4623 17.5823C23.399 17.5631 23.3262 17.5411 23.2472 17.5201C22.9179 17.4326 22.498 17.3638 21.9011 17.4304C21.7843 17.4434 21.6593 17.4481 21.5117 17.4519C21.3693 17.4555 21.2035 17.458 21.0308 17.4693C20.6767 17.4923 20.2733 17.5517 19.8197 17.7337C19.2907 17.9461 18.8666 18.1481 18.4507 18.2983C17.9917 18.4642 17.5748 18.6977 17.1819 18.9238C16.7977 19.1449 16.4103 19.3729 15.9282 19.7657C15.5179 20.1001 15.2813 20.4311 15.1467 20.6941C15.0856 20.7431 15.0289 20.7917 14.9811 20.8405C14.9024 20.921 14.8276 21.0215 14.7862 21.1567L14.7674 21.2171L14.7656 21.2802C14.7654 21.2873 14.766 21.2943 14.7661 21.3013L14.7157 21.3964C14.6739 21.4748 14.6474 21.549 14.6306 21.5987C14.6256 21.6136 14.6173 21.6378 14.6132 21.6504C14.5886 21.6909 14.5465 21.7449 14.4586 21.8576L14.4019 21.9299L14.3767 22.0187C14.3456 22.1292 14.2889 22.3311 14.2719 22.5417C14.2565 22.7336 14.2625 23.0599 14.4888 23.314C14.6429 23.4868 14.8738 23.6064 15.1472 23.6274C15.2624 23.6363 15.3618 23.6573 15.4359 23.6892C15.4494 23.695 15.4614 23.7012 15.4721 23.7071C15.4633 23.7271 15.4547 23.749 15.4442 23.772C15.4108 23.8447 15.3618 23.9474 15.3234 24.0369C15.2841 24.1285 15.2394 24.2427 15.2145 24.3613C15.1906 24.4749 15.1719 24.6505 15.2474 24.8303C15.3452 25.063 15.5265 25.2018 15.6867 25.2883C15.8648 25.3846 16.0393 25.4277 16.168 25.4563C16.2833 25.4819 16.3494 25.4951 16.4055 25.5121C16.3991 25.5502 16.3923 25.5936 16.3821 25.6553C16.3581 25.8009 16.3098 26.0954 16.427 26.3695C16.4991 26.5381 16.6355 26.6422 16.6631 26.6651C16.6606 26.663 16.6657 26.6665 16.6795 26.6875C16.6962 26.7129 16.7153 26.7474 16.7477 26.8092C16.8097 26.9278 16.8993 27.1057 17.0502 27.3116C17.1006 27.3805 17.1547 27.4519 17.1911 27.5011C17.1952 27.5067 17.1991 27.5127 17.203 27.518C17.0555 27.818 16.9471 28.2659 16.8411 29.2324C16.8111 29.5056 16.7808 29.753 16.7454 29.959C16.7085 30.1741 16.6717 30.3074 16.6425 30.3731C16.4904 30.7148 16.3662 31.0482 16.2691 31.3152C16.1643 31.6036 16.1053 31.7713 16.0701 31.8423C16.0433 31.8961 16.0123 31.9502 15.968 32.0299C15.9271 32.1037 15.8786 32.1936 15.8349 32.2921C15.7462 32.4921 15.6683 32.7494 15.6981 33.0534C15.71 33.1745 15.7455 33.2857 15.7676 33.3554C15.7934 33.4366 15.8119 33.4929 15.8257 33.5577C15.8492 33.667 15.8618 33.8152 15.7882 34.0509C15.6197 34.5902 15.2967 35.2635 15.0896 35.7543C14.9319 36.1279 14.7866 36.5103 14.7235 36.9714C14.7113 37.061 14.7059 37.1614 14.7011 37.2336C14.6957 37.315 14.6901 37.3824 14.68 37.4436C14.6595 37.5684 14.6287 37.6086 14.6091 37.6257C14.4449 37.7692 14.3114 37.8191 14.0692 37.9341C13.9929 37.9704 13.9419 37.977 13.775 38.0334C13.6709 38.0686 13.4861 38.1352 13.3376 38.2873L13.2763 38.3583C13.1714 38.4956 13.1601 38.6466 13.1683 38.7422C13.1771 38.8433 13.211 38.9357 13.2561 39.0121C13.3133 39.1087 13.454 39.3973 13.3344 40.0434C13.2682 40.4007 13.1819 40.7448 13.0333 40.9393C12.8309 41.2042 12.686 41.493 12.5735 41.8805C12.536 42.0094 12.5325 42.1618 12.5309 42.258C12.5288 42.3857 12.531 42.481 12.5268 42.6052C12.5229 42.7203 12.5139 42.8193 12.4971 42.9004C12.4797 42.9838 12.4595 43.02 12.4522 43.0299C12.4412 43.0448 12.4316 43.0561 12.4239 43.066C12.334 43.0652 12.2144 43.0615 12.0304 43.0596C11.9665 43.0589 11.8984 43.059 11.8272 43.0601C11.7839 43.0258 11.7383 42.9966 11.6913 42.9749C11.6422 42.9523 11.4984 42.8922 11.3239 42.9402C11.2203 42.9687 11.1179 43.0336 11.0462 43.1388C11.0373 43.1517 11.0291 43.1647 11.0219 43.1776C10.9396 43.2262 10.8221 43.3238 10.7858 43.5043C10.7364 43.7514 10.891 43.9157 10.9075 43.934C10.9209 43.9488 10.9356 43.9617 10.9483 43.9733C10.9528 44.3423 10.9873 44.7147 11.1006 45.0477C11.128 45.1281 11.1554 45.2281 11.1894 45.3565C11.2222 45.4803 11.2605 45.6273 11.3056 45.7816C11.3963 46.0921 11.5212 46.4543 11.7215 46.8165C11.9749 47.2748 12.1597 47.6293 12.3122 47.9224C12.4632 48.2127 12.5882 48.4543 12.7158 48.6719C13.0711 49.2779 13.4147 49.9945 14.0262 50.87C14.2919 51.2504 14.571 51.6896 14.8814 52.1475C15.177 52.5836 15.4941 53.0264 15.7896 53.3266C16.2088 53.7523 16.577 54.1718 17.3137 54.8493C18.4722 55.9146 19.5814 56.9739 20.3528 57.5836C20.5865 57.7684 20.7806 57.9364 20.9631 58.0947C21.1429 58.2506 21.3184 58.4034 21.5007 58.5426C21.6992 58.6942 21.9328 58.8556 22.156 59.0089C22.3838 59.1654 22.6017 59.3141 22.7855 59.4513C23.1638 59.7337 23.5813 59.9932 24.0369 60.1926C24.5534 60.4185 25.1259 60.5565 25.6082 60.7046C26.065 60.8448 27.0459 61.1735 28.6985 61.0802C29.6972 61.0238 30.7687 60.8219 32.1946 60.8784C32.8748 60.9054 33.3173 60.9756 33.7247 61.0349C34.139 61.0953 34.5277 61.1464 35.0552 61.1145C35.5095 61.087 36.1032 61.0674 36.6255 61.0248C37.1373 60.9831 37.6839 60.9137 38.0549 60.7531C39.2044 60.2554 40.4266 59.7932 41.0816 59.439C41.4555 59.2368 42.4949 58.7309 43.2371 58.1427C43.6164 57.8422 43.9293 57.6269 44.1948 57.4528C44.4496 57.2857 44.6978 57.1339 44.8967 56.9906C45.313 56.6907 45.8076 56.1966 46.1572 55.8541C46.5053 55.5131 46.8677 55.0922 47.1519 54.6718C47.6916 53.8735 48.6693 52.2661 49.0128 51.7169C49.3349 51.2018 49.7365 50.4939 50.1237 49.8323C50.5091 49.1738 50.8022 48.6987 51.0672 48.224C51.491 47.4644 51.8334 46.6513 52.0747 45.9316C52.3144 45.2167 52.6972 44.2076 53.1683 42.7032C53.4368 41.8456 53.766 41.1343 53.7956 40.0645C53.8452 38.2661 53.9018 37.8305 53.9864 37.4377C54.0599 37.0961 54.3114 36.4562 54.3062 35.591C54.2969 34.05 54.2588 33.4019 54.2151 32.8754C54.1748 32.3884 54.1433 31.7455 53.9635 31.0462C53.7395 30.1755 53.5544 29.382 53.2602 28.8339C52.6783 27.7499 52.481 26.9947 52.2284 26.3389C52.1133 26.0399 51.9803 25.7856 51.8423 25.5373C51.701 25.2832 51.5634 25.0509 51.4099 24.7553C51.1229 24.2025 50.7063 23.4669 50.2752 23.0665C49.8339 22.6568 49.3227 22.1194 48.86 21.7309C48.114 21.1047 47.6862 20.7884 47.3194 20.5248C46.9954 20.2919 46.2642 19.7371 45.6274 19.4839C45.1657 19.3003 44.4668 19.0091 43.9829 18.8817C43.5242 18.761 43.0495 18.6201 42.5398 18.5834C41.9601 18.5417 41.2143 18.4745 40.5595 18.4141C39.912 18.3544 39.3424 18.3 39.132 18.286C38.2911 18.2299 37.0722 18.2994 36.5958 18.3404C36.417 18.3559 36.2531 18.3825 36.092 18.4077C35.9285 18.4333 35.7533 18.4594 35.5283 18.4805C35.1055 18.52 34.4894 18.5416 33.457 18.4914C33.474 18.153 33.491 17.8157 33.5092 17.5782C33.5282 17.3291 33.5484 17.0877 33.5663 16.8685C33.5741 16.8634 33.5821 16.8583 33.5901 16.8529C33.921 16.6671 34.1835 16.5286 34.3684 16.4114C34.4085 16.386 34.4477 16.3587 34.4746 16.34C34.5049 16.319 34.5251 16.305 34.5432 16.2938C34.5525 16.2881 34.5595 16.2846 34.5638 16.2824C34.84 16.2513 35.2017 16.2357 35.3078 16.2449C35.4807 16.2598 35.577 16.2943 35.7063 16.3442C35.9366 16.433 36.0048 16.4459 36.1236 16.5093C36.3326 16.6209 36.6052 16.8055 36.9925 16.8699C37.3602 16.931 37.7162 16.9564 37.8573 16.971C38.0114 16.9869 38.2088 16.9664 38.3477 16.9596C38.5198 16.9511 38.759 16.9475 39.1201 16.9792C39.5295 17.0152 39.7247 17.0363 39.8476 17.068C39.9318 17.0897 40.0287 17.1197 40.1345 17.1531C40.2351 17.1848 40.3486 17.2213 40.4474 17.2492C40.6493 17.3061 40.9299 17.3912 41.466 17.4006C41.7743 17.406 42.2982 17.4036 42.8432 17.3791C43.3874 17.3546 43.9371 17.3095 44.2625 17.2744C44.4158 17.2578 44.5328 17.245 44.6189 17.2309C44.7066 17.2165 44.8054 17.1947 44.9049 17.1421C45.0945 17.0418 45.3026 16.8684 45.4508 16.7518C45.6255 16.6144 45.7667 16.5127 45.8918 16.4581C46.0958 16.3692 46.2172 16.327 46.3663 16.3016C46.5268 16.2743 46.7383 16.2631 47.124 16.265C47.4644 16.2667 47.9792 16.2735 48.2917 16.26C48.7236 16.2412 48.9806 16.1886 49.2109 16.1323C49.2977 16.1111 49.4314 16.0621 49.5399 16.0248C49.6662 15.9813 49.8189 15.9307 49.9951 15.8829C50.0458 15.8692 50.0959 15.8579 50.153 15.8454C50.2064 15.8338 50.2734 15.8195 50.3388 15.802C50.4771 15.7647 50.64 15.7051 50.7991 15.5782C50.9428 15.4634 51.0713 15.2877 51.1559 15.1779C51.2579 15.0456 51.3556 14.9239 51.4739 14.8155C51.6281 14.6743 51.7642 14.5499 51.8862 14.4481C52.0121 14.343 52.0994 14.2822 52.1548 14.2536C52.3952 14.1296 52.5293 14.0692 52.632 14.0463C52.8398 14.0001 53.2751 13.9517 53.7352 13.9837C53.858 13.9922 53.917 14.0244 54.2142 14.1502C54.4213 14.2379 54.5465 14.3326 54.6315 14.4009C54.6529 14.4181 54.7396 14.4921 54.8109 14.5323C54.845 14.5515 54.9749 14.6238 55.1472 14.5968C55.3635 14.5626 55.4738 14.4084 55.5164 14.3232C55.556 14.244 55.6222 14.1282 55.693 14.0193C55.728 13.9656 55.7616 13.9171 55.7909 13.8784C55.8055 13.8593 55.8181 13.8441 55.828 13.8327C55.8371 13.8221 55.842 13.8173 55.8426 13.8166C55.8828 13.779 55.9247 13.7366 55.957 13.7045C55.9922 13.6697 56.023 13.6398 56.0536 13.6126C56.115 13.5579 56.1628 13.5256 56.205 13.5073C56.2486 13.4886 56.291 13.4864 56.4429 13.4689C56.4994 13.4624 56.6035 13.4498 56.7056 13.4103C56.822 13.3653 56.9666 13.2735 57.0506 13.096C57.1368 12.9136 57.0844 12.7481 57.0446 12.6687C57.0066 12.5928 56.9569 12.5426 56.9321 12.519C56.8787 12.4685 56.8208 12.4324 56.7856 12.412C56.6494 12.3328 56.5063 12.2092 56.4063 12.0816C56.219 11.8424 56.0856 11.6619 55.9717 11.4287C55.9041 11.2902 55.7905 10.9357 55.4583 10.6037C55.3986 10.5441 55.2851 10.4221 55.2163 10.358C55.1356 10.2829 54.9983 10.1668 54.8035 10.1251C54.8059 10.1047 54.8094 10.084 54.8113 10.0634C54.825 9.91725 54.8435 9.63074 54.6924 9.38573L54.6599 9.33769L54.6233 9.29056C54.5356 9.18582 54.4308 9.10992 54.3071 9.04302C54.1777 8.97305 54.0062 8.90241 53.7841 8.81654C53.5707 8.73404 53.4716 8.69973 53.3911 8.6596C53.3373 8.63276 53.3202 8.61654 53.2982 8.58776C53.085 8.30827 52.9996 8.1751 52.95 8.07485C52.8636 7.9003 52.707 7.56479 52.5588 7.35421C52.5588 7.3542 52.5562 7.35026 52.5506 7.34048C52.5448 7.33051 52.538 7.31832 52.5286 7.30067C52.5126 7.27067 52.4835 7.21507 52.4504 7.16249C52.3884 7.06406 52.2446 6.8633 51.9708 6.80743C51.8619 6.78525 51.6533 6.76832 51.506 6.75298C51.326 6.73425 51.163 6.71247 51.0521 6.68252C50.8548 6.62921 50.6182 6.59003 50.4115 6.55715C50.1912 6.52211 50.0043 6.49366 49.8629 6.46107H49.8625L49.8313 6.4542C49.4668 6.37007 49.085 6.28146 48.5346 6.21536C48.1151 6.16498 47.7729 6.09554 47.4251 6.00809C47.144 5.93742 46.9749 5.87637 46.7676 5.81501C46.5629 5.75444 46.3573 5.70642 46.0845 5.69513C45.9017 5.68758 45.7241 5.67287 45.5102 5.65761C45.2999 5.6426 45.0657 5.62786 44.7919 5.62375Z" fill="#6A9B59"/>
<path d="M80.9858 10.5653C80.9176 9.87784 80.625 9.34375 80.108 8.96307C79.5909 8.58239 78.8892 8.39204 78.0028 8.39204C77.4006 8.39204 76.892 8.47727 76.4773 8.64773C76.0625 8.8125 75.7443 9.04261 75.5227 9.33807C75.3068 9.63352 75.1989 9.96875 75.1989 10.3438C75.1875 10.6562 75.2528 10.929 75.3949 11.1619C75.5426 11.3949 75.7443 11.5966 76 11.767C76.2557 11.9318 76.5511 12.0767 76.8864 12.2017C77.2216 12.321 77.5795 12.4233 77.9602 12.5085L79.5284 12.8835C80.2898 13.054 80.9886 13.2812 81.625 13.5653C82.2614 13.8494 82.8125 14.1989 83.2784 14.6136C83.7443 15.0284 84.1051 15.517 84.3608 16.0795C84.6222 16.642 84.7557 17.2869 84.7614 18.0142C84.7557 19.0824 84.483 20.0085 83.9432 20.7926C83.4091 21.571 82.6364 22.1761 81.625 22.608C80.6193 23.0341 79.4063 23.2472 77.9858 23.2472C76.5767 23.2472 75.3494 23.0312 74.304 22.5994C73.2642 22.1676 72.4517 21.5284 71.8665 20.6818C71.2869 19.8295 70.983 18.7756 70.9545 17.5199H74.5256C74.5653 18.1051 74.733 18.5937 75.0284 18.9858C75.3295 19.3722 75.7301 19.6648 76.2301 19.8636C76.7358 20.0568 77.3068 20.1534 77.9432 20.1534C78.5682 20.1534 79.1108 20.0625 79.571 19.8807C80.0369 19.6989 80.3977 19.446 80.6534 19.1222C80.9091 18.7983 81.0369 18.4261 81.0369 18.0057C81.0369 17.6136 80.9205 17.2841 80.6875 17.017C80.4602 16.75 80.125 16.5227 79.6818 16.3352C79.2443 16.1477 78.7074 15.9773 78.071 15.8239L76.1705 15.3466C74.6989 14.9886 73.5369 14.429 72.6847 13.6676C71.8324 12.9062 71.4091 11.8807 71.4148 10.5909C71.4091 9.53409 71.6903 8.6108 72.2585 7.82102C72.8324 7.03125 73.6193 6.41477 74.6193 5.97159C75.6193 5.52841 76.7557 5.30682 78.0284 5.30682C79.3239 5.30682 80.4545 5.52841 81.4205 5.97159C82.392 6.41477 83.1477 7.03125 83.6875 7.82102C84.2273 8.6108 84.5057 9.52557 84.5227 10.5653H80.9858ZM86.5788 8.58807V5.54545H100.914V8.58807H95.5703V23H91.9226V8.58807H86.5788ZM118.518 14.2727C118.518 16.1761 118.157 17.7955 117.435 19.1307C116.719 20.4659 115.742 21.4858 114.504 22.1903C113.271 22.8892 111.884 23.2386 110.344 23.2386C108.793 23.2386 107.401 22.8864 106.168 22.1818C104.935 21.4773 103.961 20.4574 103.245 19.1222C102.529 17.7869 102.171 16.1705 102.171 14.2727C102.171 12.3693 102.529 10.75 103.245 9.41477C103.961 8.07955 104.935 7.0625 106.168 6.36364C107.401 5.65909 108.793 5.30682 110.344 5.30682C111.884 5.30682 113.271 5.65909 114.504 6.36364C115.742 7.0625 116.719 8.07955 117.435 9.41477C118.157 10.75 118.518 12.3693 118.518 14.2727ZM114.776 14.2727C114.776 13.0398 114.592 12 114.222 11.1534C113.859 10.3068 113.344 9.66477 112.68 9.22727C112.015 8.78977 111.237 8.57102 110.344 8.57102C109.452 8.57102 108.674 8.78977 108.009 9.22727C107.344 9.66477 106.827 10.3068 106.458 11.1534C106.094 12 105.913 13.0398 105.913 14.2727C105.913 15.5057 106.094 16.5455 106.458 17.392C106.827 18.2386 107.344 18.8807 108.009 19.3182C108.674 19.7557 109.452 19.9744 110.344 19.9744C111.237 19.9744 112.015 19.7557 112.68 19.3182C113.344 18.8807 113.859 18.2386 114.222 17.392C114.592 16.5455 114.776 15.5057 114.776 14.2727ZM121.251 23V5.54545H128.138C129.462 5.54545 130.589 5.7983 131.521 6.30398C132.453 6.80398 133.163 7.5 133.652 8.39204C134.146 9.27841 134.393 10.3011 134.393 11.4602C134.393 12.6193 134.143 13.642 133.643 14.5284C133.143 15.4148 132.419 16.1051 131.47 16.5994C130.527 17.0937 129.385 17.3409 128.044 17.3409H123.655V14.3835H127.447C128.158 14.3835 128.743 14.2614 129.203 14.017C129.669 13.767 130.016 13.4233 130.243 12.9858C130.476 12.5426 130.592 12.0341 130.592 11.4602C130.592 10.8807 130.476 10.375 130.243 9.94318C130.016 9.50568 129.669 9.16761 129.203 8.92898C128.737 8.68466 128.146 8.5625 127.43 8.5625H124.942V23H121.251Z" fill="#6A9B59"/>
<path d="M71.9332 40.3636H77.0533L82.4609 53.5568H82.6911L88.0987 40.3636H93.2188V60H89.1918V47.2191H89.0288L83.9471 59.9041H81.2049L76.1232 47.1712H75.9602V60H71.9332V40.3636ZM100.024 60H95.575L102.354 40.3636H107.704L114.473 60H110.024L105.106 44.8509H104.952L100.024 60ZM99.7458 52.2816H110.254V55.5224H99.7458V52.2816ZM123.797 60H116.837V40.3636H123.855C125.83 40.3636 127.53 40.7567 128.956 41.543C130.381 42.3228 131.478 43.4446 132.245 44.9084C133.018 46.3722 133.405 48.1236 133.405 50.1626C133.405 52.2081 133.018 53.9659 132.245 55.4361C131.478 56.9062 130.375 58.0344 128.937 58.8207C127.505 59.6069 125.792 60 123.797 60ZM120.988 56.4428H123.625C124.852 56.4428 125.884 56.2255 126.722 55.7908C127.566 55.3498 128.198 54.669 128.62 53.7486C129.049 52.8217 129.263 51.6264 129.263 50.1626C129.263 48.7116 129.049 47.5259 128.62 46.6055C128.198 45.685 127.569 45.0075 126.731 44.5728C125.894 44.1381 124.862 43.9208 123.634 43.9208H120.988V56.4428Z" fill="#6A9B59"/>
<path d="M77.8117 29.7464C77.7719 29.3454 77.6012 29.0339 77.2996 28.8118C76.998 28.5897 76.5887 28.4787 76.0716 28.4787C75.7203 28.4787 75.4237 28.5284 75.1817 28.6278C74.9398 28.724 74.7542 28.8582 74.6249 29.0305C74.499 29.2029 74.436 29.3984 74.436 29.6172C74.4294 29.7995 74.4675 29.9586 74.5503 30.0945C74.6365 30.2304 74.7542 30.348 74.9033 30.4474C75.0525 30.5436 75.2248 30.6281 75.4204 30.701C75.6159 30.7706 75.8247 30.8303 76.0468 30.88L76.9616 31.0987C77.4057 31.1982 77.8134 31.3307 78.1846 31.4964C78.5558 31.6622 78.8773 31.866 79.1491 32.108C79.4208 32.3499 79.6313 32.6349 79.7805 32.9631C79.9329 33.2912 80.0108 33.6674 80.0141 34.0916C80.0108 34.7147 79.8517 35.255 79.5368 35.7124C79.2253 36.1664 78.7745 36.5194 78.1846 36.7713C77.5979 37.0199 76.8903 37.1442 76.0617 37.1442C75.2397 37.1442 74.5238 37.0182 73.914 36.7663C73.3074 36.5144 72.8335 36.1416 72.4921 35.6477C72.154 35.1506 71.9767 34.5357 71.9601 33.8033H74.0432C74.0664 34.1446 74.1642 34.4297 74.3366 34.6584C74.5122 34.8838 74.7459 35.0545 75.0376 35.1705C75.3325 35.2831 75.6656 35.3395 76.0368 35.3395C76.4014 35.3395 76.718 35.2865 76.9864 35.1804C77.2582 35.0743 77.4687 34.9268 77.6178 34.7379C77.767 34.549 77.8415 34.3319 77.8415 34.0866C77.8415 33.858 77.7736 33.6657 77.6377 33.5099C77.5051 33.3542 77.3096 33.2216 77.051 33.1122C76.7958 33.0028 76.4826 32.9034 76.1114 32.8139L75.0028 32.5355C74.1443 32.3267 73.4665 32.0002 72.9694 31.5561C72.4722 31.112 72.2253 30.5137 72.2286 29.7614C72.2253 29.1449 72.3894 28.6063 72.7208 28.1456C73.0555 27.6849 73.5146 27.3253 74.0979 27.0668C74.6813 26.8082 75.3441 26.679 76.0866 26.679C76.8422 26.679 77.5018 26.8082 78.0653 27.0668C78.632 27.3253 79.0728 27.6849 79.3877 28.1456C79.7026 28.6063 79.865 29.1399 79.8749 29.7464H77.8117ZM81.4621 37V26.8182H85.4791C86.2514 26.8182 86.9093 26.9657 87.4529 27.2607C87.9964 27.5523 88.4107 27.9583 88.6958 28.4787C88.9841 28.9957 89.1283 29.5923 89.1283 30.2685C89.1283 30.9446 88.9825 31.5412 88.6908 32.0582C88.3991 32.5753 87.9765 32.978 87.423 33.2663C86.8728 33.5547 86.2066 33.6989 85.4244 33.6989H82.8641V31.9737H85.0764C85.4907 31.9737 85.8321 31.9025 86.1006 31.7599C86.3724 31.6141 86.5745 31.4136 86.7071 31.1584C86.843 30.8999 86.911 30.6032 86.911 30.2685C86.911 29.9304 86.843 29.6354 86.7071 29.3835C86.5745 29.1283 86.3724 28.9311 86.1006 28.7919C85.8288 28.6494 85.4841 28.5781 85.0665 28.5781H83.6148V37H81.4621ZM92.6792 26.8182V37H90.5265V26.8182H92.6792ZM94.4504 37V26.8182H96.6031V35.2251H100.968V37H94.4504ZM106.003 37H102.394V26.8182H106.033C107.057 26.8182 107.939 27.022 108.678 27.4297C109.417 27.834 109.985 28.4157 110.383 29.1747C110.784 29.9337 110.985 30.8419 110.985 31.8991C110.985 32.9598 110.784 33.8712 110.383 34.6335C109.985 35.3958 109.414 35.9808 108.668 36.3885C107.925 36.7962 107.037 37 106.003 37ZM104.546 35.1555H105.914C106.55 35.1555 107.085 35.0429 107.519 34.8175C107.957 34.5888 108.285 34.2358 108.504 33.7585C108.726 33.2779 108.837 32.6581 108.837 31.8991C108.837 31.1468 108.726 30.532 108.504 30.0547C108.285 29.5774 107.959 29.2261 107.524 29.0007C107.09 28.7753 106.555 28.6626 105.919 28.6626H104.546V35.1555ZM117.574 37H115.268L118.783 26.8182H121.557L125.067 37H122.76L120.209 29.1449H120.13L117.574 37ZM117.43 32.9979H122.879V34.6783H117.43V32.9979ZM126.292 37V26.8182H133.034V28.593H128.445V31.0192H132.586V32.794H128.445V37H126.292Z" fill="#6A9B59"/>
</svg>
