<svg width="278" height="286" viewBox="0 0 278 286" fill="none" xmlns="http://www.w3.org/2000/svg">
<path d="M153.183 3.84126C160.208 -3.22396 172.243 -0.0849705 174.923 9.51137L195.414 82.9017C196.396 86.417 198.81 89.3579 202.067 91.0056L270.057 125.405C278.948 129.903 279.681 142.319 271.383 147.833L207.916 190C204.876 192.02 202.826 195.224 202.265 198.831L190.559 274.124C189.029 283.969 177.447 288.504 169.639 282.315L109.923 234.985C107.063 232.718 103.381 231.758 99.7781 232.339L24.5531 244.474C14.7169 246.06 6.82529 236.447 10.2982 227.108L36.858 155.69C38.1302 152.269 37.9058 148.471 36.2396 145.223L1.45336 77.4298C-3.0952 68.5653 3.60924 58.0892 13.5639 58.5064L89.6945 61.6967C93.341 61.8495 96.8839 60.4624 99.4573 57.8743L153.183 3.84126Z" fill="#FFF2C7"/>
</svg>
