<svg width="501" height="310" viewBox="0 0 501 310" fill="none" xmlns="http://www.w3.org/2000/svg">
<mask id="path-1-inside-1_35_628" fill="white">
<path d="M0 5C0 2.23857 2.23858 0 5 0H496C498.761 0 501 2.23858 501 5V305C501 307.761 498.761 310 496 310H4.99999C2.23857 310 0 307.761 0 305V5Z"/>
</mask>
<path d="M0 5C0 2.23857 2.23858 0 5 0H496C498.761 0 501 2.23858 501 5V305C501 307.761 498.761 310 496 310H4.99999C2.23857 310 0 307.761 0 305V5Z" stroke="#D6EDCB" stroke-width="14" mask="url(#path-1-inside-1_35_628)"/>
<path d="M130.693 163.982C127.844 163.982 125.284 163.436 123.011 162.345C120.753 161.239 118.95 159.724 117.602 157.8C116.253 155.875 115.534 153.678 115.443 151.209H122.261C122.428 153.209 123.314 154.853 124.92 156.141C126.526 157.428 128.45 158.072 130.693 158.072C132.481 158.072 134.064 157.663 135.443 156.845C136.837 156.012 137.928 154.868 138.716 153.413C139.519 151.959 139.92 150.3 139.92 148.436C139.92 146.542 139.511 144.853 138.693 143.368C137.875 141.883 136.746 140.716 135.307 139.868C133.882 139.019 132.246 138.588 130.397 138.572C128.988 138.572 127.572 138.815 126.147 139.3C124.723 139.785 123.572 140.421 122.693 141.209L116.261 140.254L118.875 116.8H144.466V122.822H124.716L123.238 135.845H123.511C124.42 134.966 125.625 134.232 127.125 133.641C128.64 133.05 130.261 132.754 131.988 132.754C134.822 132.754 137.344 133.428 139.557 134.777C141.784 136.125 143.534 137.966 144.807 140.3C146.094 142.618 146.731 145.285 146.716 148.3C146.731 151.315 146.049 154.004 144.67 156.368C143.307 158.732 141.413 160.595 138.988 161.959C136.579 163.307 133.814 163.982 130.693 163.982Z" fill="#D6EDCB"/>
<path d="M102.738 116.8V163.345H95.6928V123.845H95.4201L84.2837 131.118V124.391L95.8973 116.8H102.738Z" fill="#D6EDCB"/>
<path d="M152.017 189.109V178.2H154.07V179.933H154.183C154.382 179.346 154.733 178.884 155.234 178.548C155.741 178.207 156.314 178.037 156.953 178.037C157.086 178.037 157.242 178.042 157.422 178.051C157.607 178.061 157.751 178.072 157.855 178.087V180.118C157.77 180.094 157.618 180.068 157.401 180.04C157.183 180.007 156.965 179.99 156.747 179.99C156.245 179.99 155.798 180.097 155.405 180.31C155.017 180.518 154.709 180.809 154.482 181.183C154.254 181.552 154.141 181.974 154.141 182.447V189.109H152.017Z" fill="#D6EDCB"/>
<path d="M144.98 189.33C143.906 189.33 142.98 189.1 142.203 188.641C141.432 188.177 140.835 187.526 140.414 186.687C139.997 185.845 139.789 184.857 139.789 183.726C139.789 182.608 139.997 181.624 140.414 180.771C140.835 179.919 141.422 179.254 142.175 178.776C142.933 178.297 143.818 178.058 144.831 178.058C145.447 178.058 146.043 178.16 146.621 178.364C147.199 178.567 147.717 178.887 148.176 179.322C148.636 179.758 148.998 180.324 149.263 181.02C149.528 181.711 149.661 182.552 149.661 183.541V184.294H140.989V182.703H147.58C147.58 182.144 147.466 181.65 147.239 181.219C147.012 180.783 146.692 180.44 146.28 180.189C145.873 179.938 145.395 179.812 144.845 179.812C144.249 179.812 143.728 179.959 143.283 180.253C142.843 180.542 142.502 180.92 142.26 181.389C142.023 181.853 141.905 182.357 141.905 182.902V184.145C141.905 184.874 142.033 185.494 142.289 186.006C142.549 186.517 142.911 186.908 143.375 187.178C143.839 187.443 144.381 187.575 145.002 187.575C145.404 187.575 145.771 187.518 146.102 187.405C146.434 187.286 146.72 187.111 146.962 186.879C147.203 186.647 147.388 186.361 147.516 186.02L149.526 186.382C149.365 186.974 149.076 187.492 148.659 187.937C148.247 188.378 147.729 188.721 147.104 188.967C146.484 189.209 145.776 189.33 144.98 189.33Z" fill="#D6EDCB"/>
<path d="M138.047 178.2V179.905H132.088V178.2H138.047ZM133.686 175.587H135.809V185.906C135.809 186.318 135.871 186.628 135.994 186.837C136.117 187.04 136.276 187.18 136.47 187.256C136.669 187.327 136.884 187.362 137.116 187.362C137.287 187.362 137.436 187.35 137.564 187.327C137.692 187.303 137.791 187.284 137.862 187.27L138.246 189.024C138.122 189.072 137.947 189.119 137.72 189.166C137.493 189.218 137.209 189.247 136.868 189.251C136.309 189.261 135.788 189.161 135.305 188.953C134.822 188.745 134.432 188.423 134.133 187.987C133.835 187.552 133.686 187.005 133.686 186.347V175.587Z" fill="#D6EDCB"/>
<path d="M123.775 185.409L123.761 182.817H124.13L128.477 178.2H131.019L126.062 183.456H125.728L123.775 185.409ZM121.822 189.109V174.564H123.945V189.109H121.822ZM128.711 189.109L124.805 183.925L126.268 182.44L131.318 189.109H128.711Z" fill="#D6EDCB"/>
<path d="M114.785 189.33C113.71 189.33 112.785 189.1 112.008 188.641C111.236 188.177 110.64 187.526 110.218 186.687C109.802 185.845 109.593 184.857 109.593 183.726C109.593 182.608 109.802 181.624 110.218 180.771C110.64 179.919 111.227 179.254 111.98 178.776C112.737 178.297 113.623 178.058 114.636 178.058C115.251 178.058 115.848 178.16 116.426 178.364C117.003 178.567 117.522 178.887 117.981 179.322C118.44 179.758 118.803 180.324 119.068 181.02C119.333 181.711 119.465 182.552 119.465 183.541V184.294H110.794V182.703H117.384C117.384 182.144 117.271 181.65 117.044 181.219C116.816 180.783 116.497 180.44 116.085 180.189C115.678 179.938 115.199 179.812 114.65 179.812C114.053 179.812 113.533 179.959 113.088 180.253C112.647 180.542 112.306 180.92 112.065 181.389C111.828 181.853 111.71 182.357 111.71 182.902V184.145C111.71 184.874 111.838 185.494 112.093 186.006C112.354 186.517 112.716 186.908 113.18 187.178C113.644 187.443 114.186 187.575 114.806 187.575C115.209 187.575 115.576 187.518 115.907 187.405C116.239 187.286 116.525 187.111 116.767 186.879C117.008 186.647 117.193 186.361 117.321 186.02L119.33 186.382C119.169 186.974 118.881 187.492 118.464 187.937C118.052 188.378 117.534 188.721 116.909 188.967C116.288 189.209 115.58 189.33 114.785 189.33Z" fill="#D6EDCB"/>
<path d="M105.103 178.2H107.227V189.82C107.227 190.549 107.094 191.164 106.829 191.666C106.568 192.168 106.18 192.549 105.664 192.81C105.153 193.07 104.521 193.2 103.768 193.2C103.692 193.2 103.621 193.2 103.555 193.2C103.484 193.2 103.41 193.198 103.334 193.193V191.368C103.401 191.368 103.46 191.368 103.512 191.368C103.559 191.368 103.614 191.368 103.675 191.368C104.177 191.368 104.539 191.233 104.762 190.963C104.989 190.698 105.103 190.312 105.103 189.805V178.2ZM106.154 176.517C105.785 176.517 105.468 176.394 105.202 176.148C104.942 175.897 104.812 175.599 104.812 175.253C104.812 174.902 104.942 174.604 105.202 174.358C105.468 174.107 105.785 173.982 106.154 173.982C106.523 173.982 106.838 174.107 107.099 174.358C107.364 174.604 107.496 174.902 107.496 175.253C107.496 175.599 107.364 175.897 107.099 176.148C106.838 176.394 106.523 176.517 106.154 176.517Z" fill="#D6EDCB"/>
<path d="M97.6472 189.33C96.6245 189.33 95.732 189.095 94.9697 188.626C94.2074 188.158 93.6155 187.502 93.1941 186.659C92.7727 185.816 92.562 184.831 92.562 183.705C92.562 182.573 92.7727 181.583 93.1941 180.736C93.6155 179.888 94.2074 179.23 94.9697 178.761C95.732 178.293 96.6245 178.058 97.6472 178.058C98.67 178.058 99.5625 178.293 100.325 178.761C101.087 179.23 101.679 179.888 102.1 180.736C102.522 181.583 102.732 182.573 102.732 183.705C102.732 184.831 102.522 185.816 102.1 186.659C101.679 187.502 101.087 188.158 100.325 188.626C99.5625 189.095 98.67 189.33 97.6472 189.33ZM97.6543 187.547C98.3172 187.547 98.8665 187.372 99.3021 187.021C99.7377 186.671 100.06 186.205 100.268 185.622C100.481 185.04 100.588 184.398 100.588 183.697C100.588 183.001 100.481 182.362 100.268 181.78C100.06 181.193 99.7377 180.722 99.3021 180.366C98.8665 180.011 98.3172 179.834 97.6543 179.834C96.9867 179.834 96.4327 180.011 95.9924 180.366C95.5568 180.722 95.2325 181.193 95.0194 181.78C94.8111 182.362 94.7069 183.001 94.7069 183.697C94.7069 184.398 94.8111 185.04 95.0194 185.622C95.2325 186.205 95.5568 186.671 95.9924 187.021C96.4327 187.372 96.9867 187.547 97.6543 187.547Z" fill="#D6EDCB"/>
<path d="M85.7671 189.109V178.2H87.8196V179.933H87.9333C88.1321 179.346 88.4825 178.884 88.9844 178.548C89.491 178.207 90.064 178.037 90.7032 178.037C90.8357 178.037 90.992 178.042 91.1719 178.051C91.3566 178.061 91.501 178.072 91.6052 178.087V180.118C91.5199 180.094 91.3684 180.068 91.1506 180.04C90.9328 180.007 90.715 179.99 90.4972 179.99C89.9953 179.99 89.5479 180.097 89.1549 180.31C88.7666 180.518 88.4589 180.809 88.2316 181.183C88.0043 181.552 87.8907 181.974 87.8907 182.447V189.109H85.7671Z" fill="#D6EDCB"/>
<path d="M73.1445 189.109V174.564H78.3292C79.4608 174.564 80.3983 174.77 81.1417 175.182C81.8851 175.594 82.4414 176.157 82.8107 176.872C83.18 177.582 83.3647 178.383 83.3647 179.273C83.3647 180.168 83.1777 180.973 82.8036 181.688C82.4343 182.398 81.8756 182.961 81.1275 183.378C80.3841 183.79 79.449 183.996 78.3221 183.996H74.7567V182.135H78.1232C78.8382 182.135 79.4182 182.012 79.8633 181.766C80.3084 181.515 80.6351 181.174 80.8434 180.743C81.0517 180.312 81.1559 179.822 81.1559 179.273C81.1559 178.724 81.0517 178.236 80.8434 177.81C80.6351 177.384 80.306 177.05 79.8562 176.808C79.4111 176.567 78.824 176.446 78.0948 176.446H75.3391V189.109H73.1445Z" fill="#D6EDCB"/>
<path d="M407.631 164.659C404.04 164.644 400.972 163.697 398.426 161.818C395.881 159.939 393.934 157.205 392.585 153.614C391.237 150.023 390.562 145.697 390.562 140.636C390.562 135.591 391.237 131.28 392.585 127.705C393.949 124.129 395.903 121.402 398.449 119.523C401.009 117.644 404.07 116.705 407.631 116.705C411.191 116.705 414.244 117.652 416.79 119.545C419.335 121.424 421.282 124.152 422.631 127.727C423.994 131.288 424.676 135.591 424.676 140.636C424.676 145.712 424.002 150.046 422.653 153.636C421.305 157.212 419.358 159.947 416.812 161.841C414.267 163.72 411.206 164.659 407.631 164.659ZM407.631 158.591C410.782 158.591 413.244 157.053 415.017 153.977C416.805 150.902 417.699 146.455 417.699 140.636C417.699 136.773 417.29 133.508 416.472 130.841C415.669 128.159 414.509 126.129 412.994 124.75C411.494 123.356 409.706 122.659 407.631 122.659C404.494 122.659 402.032 124.205 400.244 127.295C398.456 130.386 397.555 134.833 397.54 140.636C397.54 144.515 397.941 147.795 398.744 150.477C399.563 153.144 400.722 155.167 402.222 156.546C403.722 157.909 405.525 158.591 407.631 158.591Z" fill="#D6EDCB"/>
<path d="M366.318 164.659C362.727 164.644 359.659 163.697 357.114 161.818C354.568 159.939 352.621 157.205 351.273 153.614C349.924 150.023 349.25 145.697 349.25 140.636C349.25 135.591 349.924 131.28 351.273 127.705C352.636 124.129 354.591 121.402 357.136 119.523C359.697 117.644 362.758 116.705 366.318 116.705C369.879 116.705 372.932 117.652 375.477 119.545C378.023 121.424 379.97 124.152 381.318 127.727C382.682 131.288 383.364 135.591 383.364 140.636C383.364 145.712 382.689 150.046 381.341 153.636C379.992 157.212 378.045 159.947 375.5 161.841C372.955 163.72 369.894 164.659 366.318 164.659ZM366.318 158.591C369.47 158.591 371.932 157.053 373.705 153.977C375.492 150.902 376.386 146.455 376.386 140.636C376.386 136.773 375.977 133.508 375.159 130.841C374.356 128.159 373.197 126.129 371.682 124.75C370.182 123.356 368.394 122.659 366.318 122.659C363.182 122.659 360.72 124.205 358.932 127.295C357.144 130.386 356.242 134.833 356.227 140.636C356.227 144.515 356.629 147.795 357.432 150.477C358.25 153.144 359.409 155.167 360.909 156.546C362.409 157.909 364.212 158.591 366.318 158.591Z" fill="#D6EDCB"/>
<path d="M325.006 164.659C321.415 164.644 318.347 163.697 315.801 161.818C313.256 159.939 311.309 157.205 309.96 153.614C308.612 150.023 307.938 145.697 307.938 140.636C307.938 135.591 308.612 131.28 309.96 127.705C311.324 124.129 313.278 121.402 315.824 119.523C318.384 117.644 321.445 116.705 325.006 116.705C328.566 116.705 331.619 117.652 334.165 119.545C336.71 121.424 338.657 124.152 340.006 127.727C341.369 131.288 342.051 135.591 342.051 140.636C342.051 145.712 341.377 150.046 340.028 153.636C338.68 157.212 336.733 159.947 334.188 161.841C331.642 163.72 328.581 164.659 325.006 164.659ZM325.006 158.591C328.157 158.591 330.619 157.053 332.392 153.977C334.18 150.902 335.074 146.455 335.074 140.636C335.074 136.773 334.665 133.508 333.847 130.841C333.044 128.159 331.884 126.129 330.369 124.75C328.869 123.356 327.081 122.659 325.006 122.659C321.869 122.659 319.407 124.205 317.619 127.295C315.831 130.386 314.93 134.833 314.915 140.636C314.915 144.515 315.316 147.795 316.119 150.477C316.937 153.144 318.097 155.167 319.597 156.546C321.097 157.909 322.9 158.591 325.006 158.591Z" fill="#D6EDCB"/>
<path d="M296.932 164.318C295.689 164.318 294.621 163.879 293.727 163C292.833 162.106 292.386 161.03 292.386 159.773C292.386 158.53 292.833 157.47 293.727 156.591C294.621 155.697 295.689 155.25 296.932 155.25C298.174 155.25 299.242 155.697 300.136 156.591C301.03 157.47 301.477 158.53 301.477 159.773C301.477 160.606 301.265 161.371 300.841 162.068C300.432 162.75 299.886 163.295 299.204 163.705C298.523 164.114 297.765 164.318 296.932 164.318Z" fill="#D6EDCB"/>
<path d="M268.943 164.659C265.352 164.644 262.284 163.697 259.739 161.818C257.193 159.939 255.246 157.205 253.898 153.614C252.549 150.023 251.875 145.697 251.875 140.636C251.875 135.591 252.549 131.28 253.898 127.705C255.261 124.129 257.216 121.402 259.761 119.523C262.322 117.644 265.383 116.705 268.943 116.705C272.504 116.705 275.557 117.652 278.102 119.545C280.648 121.424 282.595 124.152 283.943 127.727C285.307 131.288 285.989 135.591 285.989 140.636C285.989 145.712 285.314 150.046 283.966 153.636C282.617 157.212 280.67 159.947 278.125 161.841C275.58 163.72 272.519 164.659 268.943 164.659ZM268.943 158.591C272.095 158.591 274.557 157.053 276.33 153.977C278.117 150.902 279.011 146.455 279.011 140.636C279.011 136.773 278.602 133.508 277.784 130.841C276.981 128.159 275.822 126.129 274.307 124.75C272.807 123.356 271.019 122.659 268.943 122.659C265.807 122.659 263.345 124.205 261.557 127.295C259.769 130.386 258.867 134.833 258.852 140.636C258.852 144.515 259.254 147.795 260.057 150.477C260.875 153.144 262.034 155.167 263.534 156.546C265.034 157.909 266.837 158.591 268.943 158.591Z" fill="#D6EDCB"/>
<path d="M228.301 164.523C226.225 164.492 224.18 164.114 222.165 163.386C220.165 162.659 218.346 161.447 216.71 159.75C215.074 158.053 213.763 155.773 212.778 152.909C211.809 150.046 211.324 146.47 211.324 142.182C211.324 138.121 211.725 134.515 212.528 131.364C213.346 128.212 214.521 125.553 216.051 123.386C217.581 121.205 219.43 119.545 221.596 118.409C223.763 117.273 226.195 116.705 228.892 116.705C231.665 116.705 234.127 117.25 236.278 118.341C238.43 119.432 240.172 120.939 241.506 122.864C242.854 124.788 243.71 126.977 244.074 129.432H237.142C236.672 127.492 235.74 125.909 234.346 124.682C232.953 123.455 231.134 122.841 228.892 122.841C225.483 122.841 222.824 124.326 220.915 127.295C219.021 130.265 218.066 134.394 218.051 139.682H218.392C219.195 138.364 220.18 137.242 221.346 136.318C222.528 135.379 223.846 134.659 225.301 134.159C226.771 133.644 228.316 133.386 229.937 133.386C232.634 133.386 235.074 134.046 237.256 135.364C239.453 136.667 241.203 138.47 242.506 140.773C243.809 143.076 244.46 145.712 244.46 148.682C244.46 151.652 243.786 154.341 242.437 156.75C241.104 159.159 239.225 161.068 236.801 162.477C234.377 163.871 231.543 164.553 228.301 164.523ZM228.278 158.614C230.066 158.614 231.665 158.174 233.074 157.296C234.483 156.417 235.596 155.235 236.415 153.75C237.233 152.265 237.642 150.606 237.642 148.773C237.642 146.985 237.24 145.356 236.437 143.886C235.649 142.417 234.559 141.25 233.165 140.386C231.786 139.523 230.21 139.091 228.437 139.091C227.089 139.091 225.839 139.349 224.687 139.864C223.551 140.379 222.551 141.091 221.687 142C220.824 142.909 220.142 143.955 219.642 145.136C219.157 146.303 218.915 147.538 218.915 148.841C218.915 150.583 219.316 152.197 220.119 153.682C220.937 155.167 222.051 156.364 223.46 157.273C224.884 158.167 226.49 158.614 228.278 158.614Z" fill="#D6EDCB"/>
<path d="M368.489 193.295V178.295H370.563V180.064H370.741C370.864 179.837 371.041 179.574 371.273 179.276C371.505 178.977 371.827 178.717 372.239 178.494C372.651 178.267 373.196 178.153 373.873 178.153C374.753 178.153 375.539 178.376 376.231 178.821C376.922 179.266 377.464 179.908 377.857 180.746C378.255 181.584 378.454 182.592 378.454 183.771C378.454 184.95 378.257 185.961 377.864 186.804C377.471 187.642 376.932 188.288 376.245 188.743C375.558 189.193 374.775 189.418 373.894 189.418C373.231 189.418 372.689 189.306 372.268 189.084C371.851 188.861 371.524 188.601 371.288 188.303C371.051 188.004 370.869 187.739 370.741 187.507H370.613V193.295H368.489ZM370.57 183.75C370.57 184.517 370.681 185.189 370.904 185.767C371.127 186.345 371.449 186.797 371.87 187.124C372.291 187.446 372.807 187.607 373.418 187.607C374.053 187.607 374.583 187.438 375.009 187.102C375.435 186.761 375.757 186.3 375.975 185.717C376.198 185.135 376.309 184.479 376.309 183.75C376.309 183.03 376.2 182.384 375.982 181.811C375.769 181.238 375.447 180.786 375.016 180.455C374.59 180.123 374.057 179.957 373.418 179.957C372.803 179.957 372.282 180.116 371.856 180.433C371.434 180.751 371.115 181.193 370.897 181.761C370.679 182.33 370.57 182.992 370.57 183.75Z" fill="#D6EDCB"/>
<path d="M361.033 189.425C360.011 189.425 359.118 189.19 358.356 188.722C357.594 188.253 357.002 187.597 356.58 186.754C356.159 185.911 355.948 184.927 355.948 183.8C355.948 182.668 356.159 181.679 356.58 180.831C357.002 179.983 357.594 179.325 358.356 178.857C359.118 178.388 360.011 178.153 361.033 178.153C362.056 178.153 362.949 178.388 363.711 178.857C364.473 179.325 365.065 179.983 365.487 180.831C365.908 181.679 366.119 182.668 366.119 183.8C366.119 184.927 365.908 185.911 365.487 186.754C365.065 187.597 364.473 188.253 363.711 188.722C362.949 189.19 362.056 189.425 361.033 189.425ZM361.041 187.642C361.703 187.642 362.253 187.467 362.688 187.117C363.124 186.766 363.446 186.3 363.654 185.717C363.867 185.135 363.974 184.493 363.974 183.793C363.974 183.097 363.867 182.457 363.654 181.875C363.446 181.288 363.124 180.817 362.688 180.462C362.253 180.107 361.703 179.929 361.041 179.929C360.373 179.929 359.819 180.107 359.379 180.462C358.943 180.817 358.619 181.288 358.406 181.875C358.197 182.457 358.093 183.097 358.093 183.793C358.093 184.493 358.197 185.135 358.406 185.717C358.619 186.3 358.943 186.766 359.379 187.117C359.819 187.467 360.373 187.642 361.041 187.642Z" fill="#D6EDCB"/>
<path d="M348.598 180.959L346.673 181.3C346.592 181.054 346.465 180.819 346.289 180.597C346.119 180.374 345.887 180.192 345.593 180.05C345.3 179.908 344.933 179.837 344.493 179.837C343.891 179.837 343.389 179.972 342.987 180.242C342.584 180.507 342.383 180.85 342.383 181.271C342.383 181.636 342.518 181.929 342.788 182.152C343.058 182.375 343.493 182.557 344.095 182.699L345.828 183.097C346.832 183.329 347.58 183.686 348.072 184.169C348.564 184.652 348.811 185.279 348.811 186.051C348.811 186.705 348.621 187.287 348.243 187.798C347.868 188.305 347.345 188.703 346.673 188.992C346.005 189.28 345.231 189.425 344.35 189.425C343.129 189.425 342.132 189.164 341.36 188.643C340.589 188.118 340.115 187.372 339.94 186.406L341.993 186.094C342.12 186.629 342.383 187.034 342.781 187.308C343.179 187.578 343.697 187.713 344.336 187.713C345.032 187.713 345.589 187.569 346.005 187.28C346.422 186.986 346.63 186.629 346.63 186.207C346.63 185.867 346.502 185.58 346.247 185.348C345.996 185.116 345.61 184.941 345.089 184.822L343.243 184.418C342.225 184.186 341.472 183.816 340.984 183.31C340.501 182.803 340.26 182.161 340.26 181.385C340.26 180.741 340.439 180.178 340.799 179.695C341.159 179.212 341.656 178.835 342.291 178.565C342.925 178.291 343.652 178.153 344.471 178.153C345.65 178.153 346.578 178.409 347.255 178.92C347.932 179.427 348.38 180.107 348.598 180.959Z" fill="#D6EDCB"/>
<path d="M332.967 189.425C331.944 189.425 331.052 189.19 330.29 188.722C329.527 188.253 328.935 187.597 328.514 186.754C328.093 185.911 327.882 184.927 327.882 183.8C327.882 182.668 328.093 181.679 328.514 180.831C328.935 179.983 329.527 179.325 330.29 178.857C331.052 178.388 331.944 178.153 332.967 178.153C333.99 178.153 334.882 178.388 335.645 178.857C336.407 179.325 336.999 179.983 337.42 180.831C337.842 181.679 338.052 182.668 338.052 183.8C338.052 184.927 337.842 185.911 337.42 186.754C336.999 187.597 336.407 188.253 335.645 188.722C334.882 189.19 333.99 189.425 332.967 189.425ZM332.974 187.642C333.637 187.642 334.186 187.467 334.622 187.117C335.058 186.766 335.379 186.3 335.588 185.717C335.801 185.135 335.907 184.493 335.907 183.793C335.907 183.097 335.801 182.457 335.588 181.875C335.379 181.288 335.058 180.817 334.622 180.462C334.186 180.107 333.637 179.929 332.974 179.929C332.307 179.929 331.753 180.107 331.312 180.462C330.877 180.817 330.552 181.288 330.339 181.875C330.131 182.457 330.027 183.097 330.027 183.793C330.027 184.493 330.131 185.135 330.339 185.717C330.552 186.3 330.877 186.766 331.312 187.117C331.753 187.467 332.307 187.642 332.974 187.642Z" fill="#D6EDCB"/>
<path d="M315.403 189.205V178.295H317.456V180.028H317.57C317.768 179.441 318.119 178.98 318.621 178.643C319.127 178.303 319.7 178.132 320.339 178.132C320.472 178.132 320.628 178.137 320.808 178.146C320.993 178.156 321.137 178.168 321.241 178.182V180.213C321.156 180.189 321.005 180.163 320.787 180.135C320.569 180.102 320.351 180.085 320.133 180.085C319.632 180.085 319.184 180.192 318.791 180.405C318.403 180.613 318.095 180.904 317.868 181.278C317.641 181.648 317.527 182.069 317.527 182.543V189.205H315.403Z" fill="#D6EDCB"/>
<path d="M308.367 189.425C307.292 189.425 306.366 189.195 305.59 188.736C304.818 188.272 304.221 187.621 303.8 186.783C303.383 185.94 303.175 184.953 303.175 183.821C303.175 182.704 303.383 181.719 303.8 180.867C304.221 180.014 304.808 179.349 305.561 178.871C306.319 178.393 307.204 178.153 308.217 178.153C308.833 178.153 309.43 178.255 310.007 178.459C310.585 178.662 311.103 178.982 311.563 179.418C312.022 179.853 312.384 180.419 312.649 181.115C312.914 181.806 313.047 182.647 313.047 183.636V184.389H304.375V182.798H310.966C310.966 182.24 310.852 181.745 310.625 181.314C310.398 180.878 310.078 180.535 309.666 180.284C309.259 180.033 308.781 179.908 308.232 179.908C307.635 179.908 307.114 180.054 306.669 180.348C306.229 180.637 305.888 181.016 305.646 181.484C305.41 181.948 305.291 182.453 305.291 182.997V184.24C305.291 184.969 305.419 185.59 305.675 186.101C305.935 186.612 306.297 187.003 306.761 187.273C307.225 187.538 307.768 187.67 308.388 187.67C308.79 187.67 309.157 187.614 309.489 187.5C309.82 187.382 310.107 187.206 310.348 186.974C310.59 186.742 310.774 186.456 310.902 186.115L312.912 186.477C312.751 187.069 312.462 187.588 312.046 188.033C311.634 188.473 311.115 188.816 310.49 189.063C309.87 189.304 309.162 189.425 308.367 189.425Z" fill="#D6EDCB"/>
<path d="M294.935 185.504L294.92 182.912H295.29L299.636 178.296H302.179L297.221 183.551H296.888L294.935 185.504ZM292.981 189.205V174.659H295.105V189.205H292.981ZM299.871 189.205L295.964 184.02L297.427 182.536L302.477 189.205H299.871Z" fill="#D6EDCB"/>
<path d="M283.802 185.504L283.788 182.912H284.157L288.503 178.296H291.046L286.089 183.551H285.755L283.802 185.504ZM281.849 189.205V174.659H283.972V189.205H281.849ZM288.738 189.205L284.832 184.02L286.295 182.536L291.344 189.205H288.738Z" fill="#D6EDCB"/>
<path d="M273.636 189.446C272.945 189.446 272.32 189.318 271.761 189.063C271.203 188.802 270.76 188.426 270.433 187.933C270.111 187.441 269.95 186.837 269.95 186.122C269.95 185.507 270.069 185 270.305 184.602C270.542 184.205 270.862 183.89 271.264 183.658C271.667 183.426 272.116 183.251 272.614 183.132C273.111 183.014 273.617 182.924 274.133 182.862C274.787 182.786 275.317 182.725 275.724 182.678C276.132 182.626 276.427 182.543 276.612 182.429C276.797 182.315 276.889 182.131 276.889 181.875V181.825C276.889 181.205 276.714 180.724 276.364 180.384C276.018 180.043 275.502 179.872 274.815 179.872C274.1 179.872 273.537 180.031 273.125 180.348C272.718 180.661 272.436 181.009 272.28 181.392L270.284 180.938C270.521 180.275 270.866 179.74 271.321 179.332C271.78 178.92 272.308 178.622 272.905 178.438C273.501 178.248 274.129 178.153 274.787 178.153C275.222 178.153 275.684 178.206 276.172 178.31C276.664 178.409 277.123 178.594 277.55 178.864C277.98 179.134 278.333 179.519 278.608 180.021C278.882 180.518 279.02 181.165 279.02 181.96V189.205H276.946V187.713H276.861C276.723 187.988 276.517 188.258 276.243 188.523C275.968 188.788 275.615 189.008 275.185 189.183C274.754 189.358 274.238 189.446 273.636 189.446ZM274.098 187.742C274.685 187.742 275.187 187.626 275.604 187.393C276.025 187.161 276.345 186.858 276.562 186.484C276.785 186.106 276.896 185.701 276.896 185.27V183.864C276.82 183.939 276.674 184.01 276.456 184.077C276.243 184.138 275.999 184.193 275.724 184.24C275.45 184.283 275.182 184.323 274.922 184.361C274.661 184.394 274.444 184.422 274.268 184.446C273.856 184.498 273.48 184.586 273.139 184.709C272.803 184.832 272.533 185.01 272.329 185.242C272.131 185.469 272.031 185.772 272.031 186.151C272.031 186.676 272.225 187.074 272.614 187.344C273.002 187.609 273.497 187.742 274.098 187.742Z" fill="#D6EDCB"/>
<path d="M257.546 189.205V174.659H262.873C263.905 174.659 264.76 174.83 265.437 175.171C266.114 175.507 266.621 175.964 266.957 176.541C267.293 177.114 267.461 177.761 267.461 178.48C267.461 179.086 267.35 179.598 267.127 180.014C266.905 180.426 266.607 180.758 266.232 181.009C265.863 181.255 265.456 181.435 265.011 181.548V181.69C265.494 181.714 265.965 181.87 266.424 182.159C266.888 182.443 267.272 182.848 267.575 183.374C267.878 183.899 268.029 184.538 268.029 185.291C268.029 186.035 267.854 186.702 267.504 187.294C267.158 187.881 266.623 188.348 265.899 188.693C265.174 189.034 264.249 189.205 263.122 189.205H257.546ZM259.741 187.323H262.909C263.96 187.323 264.713 187.119 265.167 186.712C265.622 186.305 265.849 185.796 265.849 185.185C265.849 184.725 265.733 184.304 265.501 183.921C265.269 183.537 264.937 183.232 264.507 183.004C264.08 182.777 263.574 182.663 262.987 182.663H259.741V187.323ZM259.741 180.952H262.681C263.174 180.952 263.616 180.857 264.009 180.668C264.407 180.478 264.722 180.213 264.954 179.872C265.191 179.527 265.309 179.119 265.309 178.651C265.309 178.049 265.098 177.545 264.677 177.138C264.256 176.731 263.609 176.527 262.738 176.527H259.741V180.952Z" fill="#D6EDCB"/>
</svg>
